<?xml version="1.0" standalone="no"?>
<!DOCTYPE svg PUBLIC "-//W3C//DTD SVG 20010904//EN"
 "http://www.w3.org/TR/2001/REC-SVG-20010904/DTD/svg10.dtd">
<svg version="1.0" xmlns="http://www.w3.org/2000/svg"
 width="496.000000pt" height="495.000000pt" viewBox="0 0 496.000000 495.000000"
 preserveAspectRatio="xMidYMid meet">

<g transform="translate(0.000000,495.000000) scale(0.100000,-0.100000)"
fill="#ffffff" stroke="none">
<path d="M2380 4815 c0 -8 9 -15 20 -15 11 0 20 7 20 15 0 8 -9 15 -20 15 -11
0 -20 -7 -20 -15z"/>
<path d="M2440 4822 c0 -4 18 -19 40 -32 22 -14 40 -31 40 -38 0 -10 4 -10 19
0 15 9 26 9 43 1 13 -6 32 -13 43 -16 11 -3 28 -8 37 -12 13 -5 15 -2 11 14
-4 16 -1 21 15 21 11 0 25 -7 32 -15 18 -22 47 -18 53 7 3 12 4 25 1 29 -8 13
-94 8 -123 -7 -33 -18 -46 -17 -61 1 -7 8 -24 15 -39 15 -15 0 -34 9 -44 20
-16 19 -67 28 -67 12z"/>
<path d="M2620 4816 c0 -17 41 -29 54 -16 6 6 -1 13 -18 20 -35 13 -36 13 -36
-4z"/>
<path d="M2250 4812 c0 -15 48 -35 67 -28 15 6 13 10 -16 22 -38 16 -51 18
-51 6z"/>
<path d="M2165 4800 c3 -5 13 -10 21 -10 8 0 14 5 14 10 0 6 -9 10 -21 10 -11
0 -17 -4 -14 -10z"/>
<path d="M2813 4790 c-55 -22 -4 -41 53 -20 30 12 44 6 27 -11 -6 -6 -9 -18
-6 -25 4 -11 -5 -14 -35 -14 -43 0 -63 -14 -36 -24 9 -3 34 -6 56 -6 35 0 40
2 35 20 -3 12 1 24 11 30 15 8 15 11 2 20 -12 8 -13 12 -2 19 9 5 2 10 -25 14
-47 8 -52 8 -80 -3z"/>
<path d="M2293 4764 c-51 -24 -68 -44 -40 -44 21 0 77 -30 77 -41 0 -5 7 -9
15 -9 8 0 15 2 15 4 0 9 -45 53 -60 59 -8 3 -1 6 17 6 33 1 67 26 58 42 -9 13
-24 10 -82 -17z"/>
<path d="M2042 4768 c6 -18 22 -20 43 -3 19 14 18 14 -13 15 -22 0 -32 -4 -30
-12z"/>
<path d="M2166 4771 c-4 -5 -3 -16 0 -25 5 -12 -5 -16 -58 -18 -62 -3 -85 -21
-30 -25 15 -1 50 -5 79 -9 29 -3 59 -4 68 0 13 5 13 8 -5 26 -11 11 -20 29
-20 40 0 20 -24 28 -34 11z"/>
<path d="M1964 4757 c-13 -35 -9 -71 10 -75 30 -6 39 12 25 52 -13 37 -26 46
-35 23z"/>
<path d="M3000 4755 c13 -16 60 -21 60 -6 0 9 -33 21 -59 21 -11 0 -11 -3 -1
-15z"/>
<path d="M2394 4745 c-9 -22 3 -34 42 -41 46 -8 52 0 23 31 -27 28 -57 33 -65
10z"/>
<path d="M1831 4731 c-11 -7 -7 -13 17 -25 17 -9 36 -16 42 -16 17 0 11 29 -9
40 -24 12 -32 12 -50 1z"/>
<path d="M2955 4730 c-3 -6 1 -13 10 -16 19 -8 30 0 20 15 -8 14 -22 14 -30 1z"/>
<path d="M2572 4718 c-20 -20 -14 -40 11 -36 14 2 22 10 22 22 0 24 -16 31
-33 14z"/>
<path d="M3162 4702 c3 -23 0 -27 -20 -24 -14 1 -22 -3 -20 -9 2 -6 7 -10 11
-10 4 1 16 -7 27 -16 11 -10 29 -26 41 -36 l20 -18 -25 -26 c-14 -14 -26 -32
-26 -39 0 -21 33 -17 53 7 16 18 27 20 85 16 37 -2 77 -7 88 -11 18 -6 23 -3
28 20 5 17 3 30 -5 35 -8 5 -1 11 22 17 36 11 21 16 -34 12 -15 -1 -39 5 -52
14 -13 9 -40 16 -59 16 -39 0 -55 14 -30 28 20 11 14 16 -54 36 l-53 15 3 -27z
m99 -72 c11 -12 26 -16 43 -13 25 5 96 -21 96 -35 0 -4 -34 -8 -75 -8 -63 0
-76 3 -81 18 -3 10 -14 23 -25 28 -22 12 -24 30 -6 49 10 10 14 9 22 -5 6 -9
17 -25 26 -34z"/>
<path d="M3090 4711 c0 -11 26 -22 34 -14 3 3 3 10 0 14 -7 12 -34 11 -34 0z"/>
<path d="M3000 4704 c0 -17 23 -44 38 -44 10 0 23 -5 30 -12 6 -6 15 -9 18 -5
9 9 -51 67 -70 67 -9 0 -16 -3 -16 -6z"/>
<path d="M2952 4686 c1 -10 8 -17 13 -17 15 1 12 24 -3 29 -9 3 -13 -2 -10
-12z"/>
<path d="M1667 4683 c-32 -9 -12 -28 31 -30 37 -1 62 10 50 23 -8 7 -63 12
-81 7z"/>
<path d="M2018 4683 c-33 -9 -18 -24 20 -21 20 2 37 8 37 13 0 11 -31 16 -57
8z"/>
<path d="M2440 4670 c-14 -10 -21 -22 -17 -26 12 -12 61 10 65 29 4 22 -17 21
-48 -3z"/>
<path d="M2667 4683 c-4 -3 -7 -10 -7 -14 0 -10 60 -30 71 -23 17 10 9 22 -22
33 -38 13 -34 13 -42 4z"/>
<path d="M1790 4670 c0 -5 5 -10 10 -10 6 0 10 5 10 10 0 6 -4 10 -10 10 -5 0
-10 -4 -10 -10z"/>
<path d="M1870 4665 c0 -16 17 -19 44 -9 26 10 18 24 -14 24 -20 0 -30 -5 -30
-15z"/>
<path d="M2266 4673 c-11 -11 -6 -23 9 -23 8 0 15 4 15 9 0 13 -16 22 -24 14z"/>
<path d="M2877 4674 c-9 -10 2 -24 19 -24 8 0 14 7 14 15 0 15 -21 21 -33 9z"/>
<path d="M2532 4645 c-15 -33 -15 -35 3 -35 13 0 35 36 35 56 0 15 -29 -1 -38
-21z"/>
<path d="M2805 4650 c-8 -13 13 -40 31 -40 21 0 17 28 -5 40 -14 7 -22 7 -26
0z"/>
<path d="M1761 4639 c-17 -7 -21 -13 -14 -20 15 -15 68 -7 68 11 0 18 -22 22
-54 9z"/>
<path d="M1907 4644 c-19 -19 -4 -30 43 -30 51 0 67 20 19 22 -13 1 -31 5 -40
8 -8 4 -18 3 -22 0z"/>
<path d="M2118 4639 c-19 -10 -25 -49 -9 -49 14 0 80 44 81 53 0 10 -52 8 -72
-4z"/>
<path d="M2943 4643 c-22 -8 -14 -31 13 -37 37 -10 56 10 30 30 -21 15 -24 15
-43 7z"/>
<path d="M1630 4625 c-14 -8 -38 -14 -53 -15 -17 0 -30 -7 -34 -17 -4 -10 -31
-42 -60 -72 -55 -56 -63 -71 -39 -71 18 0 43 24 51 50 3 11 10 20 14 20 3 0
31 16 61 35 30 19 67 35 83 35 23 0 28 4 25 22 -4 27 -17 31 -48 13z"/>
<path d="M2212 4618 c5 -15 48 -24 48 -10 0 10 -23 22 -42 22 -5 0 -8 -6 -6
-12z"/>
<path d="M2388 4610 c-23 -22 -23 -30 1 -30 24 0 31 10 22 31 -5 15 -8 14 -23
-1z"/>
<path d="M1462 4596 c-38 -21 -92 -69 -92 -82 0 -2 11 -4 25 -4 15 0 31 9 41
24 8 14 32 33 52 44 37 19 54 42 30 42 -7 -1 -32 -11 -56 -24z"/>
<path d="M2667 4604 c-16 -16 -5 -25 26 -22 17 2 31 8 30 13 -3 12 -46 19 -56
9z"/>
<path d="M1830 4576 c-5 -15 -10 -29 -10 -32 0 -10 29 -2 40 12 11 12 10 18
-3 31 -15 15 -17 14 -27 -11z"/>
<path d="M2020 4586 c0 -15 37 -32 47 -22 3 3 3 12 0 21 -8 19 -47 20 -47 1z"/>
<path d="M2780 4586 c0 -11 9 -16 26 -16 31 0 28 23 -4 28 -15 2 -22 -2 -22
-12z"/>
<path d="M3040 4574 c0 -13 7 -15 31 -10 17 3 38 6 45 6 8 0 14 5 14 10 0 6
-20 10 -45 10 -35 0 -45 -4 -45 -16z"/>
<path d="M1670 4565 c0 -8 -9 -20 -20 -27 -21 -13 -27 -38 -10 -38 16 0 80 61
74 71 -9 15 -44 10 -44 -6z"/>
<path d="M2272 4571 c2 -7 7 -12 11 -12 12 1 9 15 -3 20 -7 2 -11 -2 -8 -8z"/>
<path d="M3530 4570 c0 -12 59 -50 78 -50 23 0 12 16 -27 38 -44 25 -51 26
-51 12z"/>
<path d="M1928 4553 c7 -3 16 -2 19 1 4 3 -2 6 -13 5 -11 0 -14 -3 -6 -6z"/>
<path d="M2170 4546 c0 -8 -3 -21 -6 -30 -4 -10 -1 -16 7 -16 15 0 40 45 31
55 -11 10 -32 5 -32 -9z"/>
<path d="M2450 4550 c0 -5 6 -10 14 -10 8 0 18 5 21 10 3 6 -3 10 -14 10 -12
0 -21 -4 -21 -10z"/>
<path d="M2955 4550 c4 -6 11 -8 16 -5 14 9 11 15 -7 15 -8 0 -12 -5 -9 -10z"/>
<path d="M2303 4543 c-20 -7 -15 -23 7 -23 11 0 20 4 20 9 0 13 -12 19 -27 14z"/>
<path d="M2542 4541 c-11 -7 -10 -10 3 -15 23 -9 25 -8 25 9 0 17 -9 19 -28 6z"/>
<path d="M2721 4541 c-10 -7 -10 -10 -1 -16 6 -4 16 -3 22 3 13 13 -4 23 -21
13z"/>
<path d="M2870 4540 c0 -5 9 -10 20 -10 11 0 20 5 20 10 0 6 -9 10 -20 10 -11
0 -20 -4 -20 -10z"/>
<path d="M3435 4540 c-3 -6 1 -13 10 -16 19 -8 30 0 20 15 -8 14 -22 14 -30 1z"/>
<path d="M1708 4529 c-20 -12 1 -26 32 -21 25 4 32 1 37 -17 6 -24 33 -29 33
-6 0 8 -5 15 -11 15 -8 0 -8 5 1 15 7 8 11 15 9 16 -24 4 -93 3 -101 -2z"/>
<path d="M2982 4518 c7 -19 38 -22 38 -4 0 10 -9 16 -21 16 -12 0 -19 -5 -17
-12z"/>
<path d="M1297 4506 c-10 -8 -15 -20 -11 -29 3 -8 1 -18 -5 -22 -25 -15 -8
-21 45 -17 53 4 55 3 46 -14 -6 -11 -29 -37 -51 -59 -22 -22 -40 -43 -41 -47
-1 -19 29 -4 73 38 51 49 77 94 53 94 -7 0 -26 16 -42 35 -32 38 -40 41 -67
21z"/>
<path d="M2456 4513 c-3 -3 -3 -10 0 -14 7 -12 34 -11 34 0 0 11 -26 22 -34
14z"/>
<path d="M2780 4511 c0 -5 7 -12 16 -15 22 -9 24 -8 24 9 0 8 -9 15 -20 15
-11 0 -20 -4 -20 -9z"/>
<path d="M3314 4506 c-10 -7 -31 -16 -46 -20 -28 -6 -36 -20 -19 -30 4 -3 23
0 41 7 28 10 34 10 38 -2 6 -17 51 -61 63 -61 20 0 7 30 -21 50 -22 15 -29 27
-25 40 8 24 -7 32 -31 16z"/>
<path d="M3510 4510 c0 -5 7 -10 15 -10 8 0 15 5 15 10 0 6 -7 10 -15 10 -8 0
-15 -4 -15 -10z"/>
<path d="M1950 4490 c-8 -14 -19 -19 -42 -17 -44 3 -47 -20 -3 -25 19 -2 39
-2 44 1 8 6 31 46 31 55 0 14 -20 4 -30 -14z"/>
<path d="M2350 4500 c0 -5 7 -10 15 -10 8 0 15 5 15 10 0 6 -7 10 -15 10 -8 0
-15 -4 -15 -10z"/>
<path d="M3587 4503 c-4 -3 -7 -10 -7 -14 0 -11 29 -19 35 -10 6 11 -20 33
-28 24z"/>
<path d="M3655 4500 c3 -5 13 -10 21 -10 8 0 12 5 9 10 -3 6 -13 10 -21 10 -8
0 -12 -4 -9 -10z"/>
<path d="M1525 4480 c-3 -5 0 -18 6 -29 10 -15 9 -22 -4 -36 -21 -20 -21 -25
-3 -25 17 0 41 64 32 85 -6 17 -22 20 -31 5z"/>
<path d="M2984 4479 c-8 -14 18 -31 30 -19 9 9 0 30 -14 30 -5 0 -12 -5 -16
-11z"/>
<path d="M3100 4480 c0 -5 7 -10 15 -10 8 0 15 5 15 10 0 6 -7 10 -15 10 -8 0
-15 -4 -15 -10z"/>
<path d="M3162 4478 c3 -7 15 -15 28 -16 21 -3 22 -2 11 12 -16 19 -44 21 -39
4z"/>
<path d="M3060 4470 c0 -5 7 -10 15 -10 8 0 15 5 15 10 0 6 -7 10 -15 10 -8 0
-15 -4 -15 -10z"/>
<path d="M3452 4465 c-26 -14 -22 -19 24 -29 24 -5 33 -3 38 9 13 35 -18 45
-62 20z"/>
<path d="M1597 4463 c-12 -11 -8 -21 12 -26 24 -6 46 7 37 22 -8 12 -39 15
-49 4z"/>
<path d="M2040 4455 c0 -10 7 -15 18 -13 21 4 19 22 -2 26 -10 2 -16 -3 -16
-13z"/>
<path d="M1217 4453 c-12 -11 -8 -23 8 -23 8 0 15 7 15 15 0 16 -12 20 -23 8z"/>
<path d="M3580 4447 c0 -14 19 -37 31 -37 4 0 14 11 23 25 l16 25 -35 0 c-22
0 -35 -5 -35 -13z"/>
<path d="M3705 4450 c-9 -15 4 -50 19 -50 21 0 25 11 14 36 -12 26 -23 30 -33
14z"/>
<path d="M2170 4440 c-12 -8 -12 -10 3 -16 21 -8 35 2 21 16 -5 5 -15 6 -24 0z"/>
<path d="M2306 4441 c-3 -5 1 -11 9 -15 15 -6 29 7 18 18 -9 9 -21 8 -27 -3z"/>
<path d="M2905 4440 c-8 -13 20 -24 41 -16 20 8 9 26 -16 26 -10 0 -22 -5 -25
-10z"/>
<path d="M3172 4441 c-11 -6 -10 -10 4 -15 20 -8 32 0 18 14 -5 5 -15 5 -22 1z"/>
<path d="M1717 4433 c-15 -14 -6 -24 16 -18 35 11 44 25 16 25 -14 0 -29 -3
-32 -7z"/>
<path d="M2700 4436 c0 -2 7 -9 15 -16 12 -10 15 -10 15 4 0 9 -7 16 -15 16
-8 0 -15 -2 -15 -4z"/>
<path d="M2780 4436 c0 -2 7 -6 15 -10 8 -3 15 -1 15 4 0 6 -7 10 -15 10 -8 0
-15 -2 -15 -4z"/>
<path d="M1210 4398 c-30 -5 -62 -10 -70 -12 -29 -4 -43 -17 -31 -29 8 -8 14
-8 23 1 7 7 29 12 51 12 21 0 47 5 59 11 18 10 19 8 13 -11 -5 -16 -3 -21 6
-18 8 3 14 10 14 16 0 5 3 14 8 18 11 11 8 24 -5 23 -7 -1 -38 -6 -68 -11z"/>
<path d="M2520 4394 c0 -8 5 -12 10 -9 6 4 8 11 5 16 -9 14 -15 11 -15 -7z"/>
<path d="M1417 4393 c-12 -11 -8 -23 8 -23 8 0 15 7 15 15 0 16 -12 20 -23 8z"/>
<path d="M2170 4393 c0 -5 11 -13 25 -20 28 -13 32 -8 11 13 -16 15 -36 19
-36 7z"/>
<path d="M3692 4378 c7 -19 38 -22 38 -4 0 10 -9 16 -21 16 -12 0 -19 -5 -17
-12z"/>
<path d="M3812 4375 c-22 -10 -32 -20 -30 -32 5 -27 27 -27 39 1 7 14 18 26
26 26 7 0 13 5 13 10 0 13 -8 12 -48 -5z"/>
<path d="M1680 4366 c0 -8 4 -17 9 -20 11 -7 33 18 24 27 -12 12 -33 7 -33 -7z"/>
<path d="M1435 4356 c-14 -10 -15 -15 -6 -21 8 -4 19 -1 28 8 20 19 1 30 -22
13z"/>
<path d="M1950 4360 c0 -5 7 -10 15 -10 8 0 15 5 15 10 0 6 -7 10 -15 10 -8 0
-15 -4 -15 -10z"/>
<path d="M3265 4360 c4 -6 11 -8 16 -5 14 9 11 15 -7 15 -8 0 -12 -5 -9 -10z"/>
<path d="M3510 4360 c0 -5 4 -10 9 -10 6 0 13 5 16 10 3 6 -1 10 -9 10 -9 0
-16 -4 -16 -10z"/>
<path d="M3583 4363 c-18 -7 -16 -43 2 -43 16 0 55 30 55 42 0 9 -37 9 -57 1z"/>
<path d="M2835 4351 c-7 -12 12 -24 25 -16 11 7 4 25 -10 25 -5 0 -11 -4 -15
-9z"/>
<path d="M3413 4353 c-15 -5 -18 -33 -4 -33 13 0 33 28 24 33 -4 2 -14 2 -20
0z"/>
<path d="M1055 4339 c-4 -6 -4 -13 -1 -16 8 -8 36 5 36 17 0 13 -27 13 -35 -1z"/>
<path d="M3148 4343 c7 -3 16 -2 19 1 4 3 -2 6 -13 5 -11 0 -14 -3 -6 -6z"/>
<path d="M1147 4333 c-13 -12 -7 -23 13 -23 11 0 20 7 20 15 0 15 -21 21 -33
8z"/>
<path d="M2277 4333 c-9 -9 12 -33 29 -33 17 0 18 12 2 28 -14 14 -22 15 -31
5z"/>
<path d="M2960 4331 c0 -11 26 -22 34 -14 3 3 3 10 0 14 -7 12 -34 11 -34 0z"/>
<path d="M3495 4330 c-4 -6 -3 -14 0 -20 9 -15 35 -12 35 4 0 17 -27 29 -35
16z"/>
<path d="M3880 4325 c0 -18 41 -37 54 -24 13 11 -12 39 -35 39 -11 0 -19 -7
-19 -15z"/>
<path d="M1480 4315 c0 -8 4 -15 9 -15 5 0 11 7 15 15 3 9 0 15 -9 15 -8 0
-15 -7 -15 -15z"/>
<path d="M3343 4323 c-18 -7 -16 -23 2 -23 8 0 15 7 15 15 0 8 -1 15 -2 14 -2
0 -9 -3 -15 -6z"/>
<path d="M3690 4309 c12 -22 37 -35 47 -25 9 8 -27 46 -44 46 -11 0 -11 -4 -3
-21z"/>
<path d="M1405 4310 c-3 -5 -1 -10 4 -10 6 0 11 5 11 10 0 6 -2 10 -4 10 -3 0
-8 -4 -11 -10z"/>
<path d="M1835 4311 c-3 -5 -1 -12 5 -16 12 -7 30 2 30 16 0 12 -27 12 -35 0z"/>
<path d="M986 4291 c-16 -17 -16 -19 5 -24 29 -8 38 -1 32 23 -7 25 -15 25
-37 1z"/>
<path d="M1173 4303 c-18 -7 -16 -30 3 -37 18 -7 64 18 64 34 0 10 -45 12 -67
3z"/>
<path d="M3850 4300 c-10 -6 -8 -11 9 -21 11 -8 21 -22 21 -31 0 -10 16 -33
35 -52 19 -20 35 -41 35 -47 0 -6 9 -9 20 -6 20 5 75 -16 85 -34 9 -14 45 -11
45 4 0 8 -18 19 -40 26 -22 6 -40 16 -40 22 0 5 -12 8 -27 7 -24 -3 -28 1 -31
25 -3 23 1 28 27 33 33 7 36 11 22 32 -11 19 -61 4 -70 -21 -7 -19 -9 -18 -29
11 -12 16 -22 35 -22 40 0 14 -25 22 -40 12z"/>
<path d="M1059 4278 c-7 -13 -18 -27 -25 -31 -15 -9 -19 -37 -6 -37 5 0 17 9
27 20 13 15 29 20 53 18 39 -3 58 20 23 29 -12 3 -21 9 -21 14 0 19 -40 8 -51
-13z"/>
<path d="M3772 4283 c4 -23 56 -49 70 -35 6 6 0 17 -18 31 -33 26 -57 27 -52
4z"/>
<path d="M3177 4284 c-9 -10 2 -24 19 -24 8 0 14 7 14 15 0 15 -21 21 -33 9z"/>
<path d="M3640 4275 c0 -9 9 -15 21 -15 18 0 19 2 9 15 -7 8 -16 15 -21 15 -5
0 -9 -7 -9 -15z"/>
<path d="M1385 4269 c-4 -6 -5 -13 -2 -16 7 -7 27 6 27 18 0 12 -17 12 -25 -2z"/>
<path d="M1640 4269 c0 -20 21 -49 35 -49 18 0 19 19 1 43 -15 19 -36 23 -36
6z"/>
<path d="M2820 4270 c0 -5 7 -10 15 -10 8 0 15 5 15 10 0 6 -7 10 -15 10 -8 0
-15 -4 -15 -10z"/>
<path d="M1285 4249 c-4 -6 -4 -13 -1 -16 8 -8 36 5 36 17 0 13 -27 13 -35 -1z"/>
<path d="M1525 4250 c-8 -14 3 -30 21 -30 8 0 14 9 14 20 0 21 -24 28 -35 10z"/>
<path d="M1945 4251 c-3 -5 0 -13 6 -16 5 -4 8 -14 5 -22 -4 -9 -1 -13 6 -11
19 7 23 58 4 58 -8 0 -17 -4 -21 -9z"/>
<path d="M3236 4253 c-11 -11 -6 -23 9 -23 8 0 15 4 15 9 0 13 -16 22 -24 14z"/>
<path d="M920 4229 c-22 -40 18 -57 58 -26 11 9 9 14 -10 29 -30 23 -35 22
-48 -3z"/>
<path d="M1250 4239 c0 -5 5 -7 10 -4 6 3 10 8 10 11 0 2 -4 4 -10 4 -5 0 -10
-5 -10 -11z"/>
<path d="M3540 4237 c0 -25 34 -45 73 -44 47 1 49 17 2 17 -24 0 -37 6 -45 20
-12 23 -30 27 -30 7z"/>
<path d="M1343 4233 c-15 -5 -18 -33 -4 -33 13 0 33 28 24 33 -4 2 -14 2 -20
0z"/>
<path d="M1590 4224 c0 -9 7 -14 17 -12 25 5 28 28 4 28 -12 0 -21 -6 -21 -16z"/>
<path d="M4040 4234 c0 -4 8 -12 17 -19 15 -11 15 -15 4 -29 -17 -20 -1 -42
23 -33 25 10 18 41 -14 65 -16 13 -30 20 -30 16z"/>
<path d="M1080 4205 c-7 -9 -10 -18 -7 -21 9 -9 60 10 65 24 6 18 -43 15 -58
-3z"/>
<path d="M3732 4208 c3 -7 13 -15 22 -16 12 -3 17 1 14 10 -3 7 -13 15 -22 16
-12 3 -17 -1 -14 -10z"/>
<path d="M1200 4174 c0 -9 5 -14 12 -12 18 6 21 28 4 28 -9 0 -16 -7 -16 -16z"/>
<path d="M2000 4174 c0 -9 7 -14 17 -12 25 5 28 28 4 28 -12 0 -21 -6 -21 -16z"/>
<path d="M2930 4180 c0 -5 7 -10 15 -10 8 0 15 5 15 10 0 6 -7 10 -15 10 -8 0
-15 -4 -15 -10z"/>
<path d="M3790 4180 c0 -14 55 -40 82 -40 23 1 23 1 -5 25 -28 25 -77 34 -77
15z"/>
<path d="M858 4167 c-16 -6 -28 -19 -28 -29 0 -22 3 -22 40 -3 17 9 30 22 30
30 0 17 -4 17 -42 2z"/>
<path d="M979 4153 c-9 -10 -27 -27 -40 -38 -20 -16 -21 -20 -7 -23 31 -6 78
26 78 53 0 29 -10 32 -31 8z"/>
<path d="M3403 4158 c2 -7 10 -13 17 -13 7 0 15 6 18 13 2 7 -5 12 -18 12 -13
0 -20 -5 -17 -12z"/>
<path d="M1115 4150 c-3 -5 1 -10 9 -10 9 0 16 5 16 10 0 6 -4 10 -9 10 -6 0
-13 -4 -16 -10z"/>
<path d="M1300 4145 c-7 -9 -10 -19 -6 -22 8 -9 38 9 44 25 5 17 -23 15 -38
-3z"/>
<path d="M4150 4135 c0 -5 10 -19 22 -32 15 -16 21 -34 20 -58 -1 -18 2 -36 8
-40 6 -3 17 -22 25 -41 8 -19 19 -34 24 -34 14 0 14 13 0 27 -6 6 -12 21 -15
34 -12 74 -19 90 -50 120 -19 18 -34 29 -34 24z"/>
<path d="M3512 4119 c2 -7 10 -15 17 -17 8 -3 12 1 9 9 -2 7 -10 15 -17 17 -8
3 -12 -1 -9 -9z"/>
<path d="M823 4085 c-20 -19 -51 -37 -69 -41 -19 -3 -37 -11 -40 -16 -7 -11
-5 -14 24 -23 17 -5 29 0 51 24 16 17 45 38 65 46 20 9 36 22 36 30 0 25 -29
17 -67 -20z"/>
<path d="M1011 4111 c-7 -5 -11 -14 -7 -19 9 -15 36 -4 36 14 0 16 -9 18 -29
5z"/>
<path d="M1415 4110 c-11 -17 5 -32 21 -19 7 6 11 15 8 20 -7 12 -21 11 -29
-1z"/>
<path d="M3095 4101 c-7 -12 12 -24 25 -16 11 7 4 25 -10 25 -5 0 -11 -4 -15
-9z"/>
<path d="M3886 4102 c-3 -6 -1 -14 5 -17 15 -10 25 3 12 16 -7 7 -13 7 -17 1z"/>
<path d="M3942 4098 c6 -18 28 -21 28 -4 0 9 -7 16 -16 16 -9 0 -14 -5 -12
-12z"/>
<path d="M4013 4093 c9 -9 19 -14 23 -11 10 10 -6 28 -24 28 -15 0 -15 -1 1
-17z"/>
<path d="M4142 4099 c2 -7 10 -15 17 -17 8 -3 12 1 9 9 -2 7 -10 15 -17 17 -8
3 -12 -1 -9 -9z"/>
<path d="M3792 4083 c-15 -3 -22 -10 -20 -21 5 -26 32 -25 45 3 6 14 8 24 5
24 -4 -1 -17 -4 -30 -6z"/>
<path d="M1086 4055 c-3 -9 0 -15 9 -15 8 0 15 7 15 15 0 8 -4 15 -9 15 -5 0
-11 -7 -15 -15z"/>
<path d="M4013 4055 c-7 -20 2 -29 21 -22 9 4 13 13 10 22 -8 19 -23 19 -31 0z"/>
<path d="M4080 4056 c0 -8 9 -21 19 -28 10 -8 21 -24 23 -37 4 -29 28 -41 28
-14 0 10 -5 35 -11 56 -8 30 -15 37 -34 37 -15 0 -25 -6 -25 -14z"/>
<path d="M3422 4048 c-7 -7 -12 -21 -12 -32 0 -19 1 -19 20 2 30 32 23 61 -8
30z"/>
<path d="M1210 4041 c0 -18 18 -21 30 -6 10 13 9 15 -9 15 -11 0 -21 -4 -21
-9z"/>
<path d="M1670 4040 c0 -5 7 -10 15 -10 8 0 15 5 15 10 0 6 -7 10 -15 10 -8 0
-15 -4 -15 -10z"/>
<path d="M3887 4034 c-8 -8 1 -24 14 -24 5 0 9 7 9 15 0 15 -12 20 -23 9z"/>
<path d="M863 4023 c-39 -5 -63 -30 -38 -39 19 -8 85 20 85 36 0 5 -3 9 -7 8
-5 0 -22 -3 -40 -5z"/>
<path d="M1315 4021 c-3 -5 -1 -12 5 -16 12 -7 30 2 30 16 0 12 -27 12 -35 0z"/>
<path d="M955 4009 c-12 -19 5 -23 22 -6 16 16 16 17 1 17 -9 0 -20 -5 -23
-11z"/>
<path d="M1090 4005 c0 -8 7 -15 15 -15 8 0 15 7 15 15 0 8 -7 15 -15 15 -8 0
-15 -7 -15 -15z"/>
<path d="M3720 4010 c0 -13 28 -25 38 -16 3 4 0 11 -8 16 -20 13 -30 12 -30 0z"/>
<path d="M1003 3995 c-3 -9 -3 -19 1 -22 8 -9 37 18 30 28 -8 14 -24 11 -31
-6z"/>
<path d="M1270 3994 c0 -8 5 -12 10 -9 6 3 10 10 10 16 0 5 -4 9 -10 9 -5 0
-10 -7 -10 -16z"/>
<path d="M3676 3991 c-3 -5 1 -14 8 -20 16 -13 32 2 21 19 -8 12 -22 13 -29 1z"/>
<path d="M4280 3991 c0 -6 4 -12 9 -15 4 -3 11 -19 14 -35 4 -19 14 -32 29
-37 13 -3 26 -12 30 -18 6 -8 8 -8 8 1 0 6 -8 18 -18 25 -10 7 -28 30 -41 51
-23 37 -31 45 -31 28z"/>
<path d="M3998 3976 c-26 -19 -22 -28 10 -24 15 2 27 9 27 17 0 20 -17 23 -37
7z"/>
<path d="M4075 3971 c-5 -9 24 -31 39 -31 13 0 5 28 -10 34 -20 8 -22 8 -29
-3z"/>
<path d="M3426 3962 c-3 -6 -1 -14 5 -17 15 -10 25 3 12 16 -7 7 -13 7 -17 1z"/>
<path d="M644 3945 c-8 -21 3 -48 19 -43 19 7 22 58 2 58 -8 0 -18 -7 -21 -15z"/>
<path d="M713 3935 c-3 -9 -3 -19 1 -22 8 -9 37 18 30 28 -8 14 -24 11 -31 -6z"/>
<path d="M3690 3934 c0 -8 5 -12 10 -9 6 4 8 11 5 16 -9 14 -15 11 -15 -7z"/>
<path d="M830 3925 c-7 -9 -10 -18 -7 -21 10 -11 37 5 37 21 0 19 -14 19 -30
0z"/>
<path d="M762 3918 c-13 -13 -16 -58 -4 -58 15 0 32 24 32 47 0 25 -10 29 -28
11z"/>
<path d="M3810 3910 c0 -5 7 -10 15 -10 8 0 15 5 15 10 0 6 -7 10 -15 10 -8 0
-15 -4 -15 -10z"/>
<path d="M4175 3910 c-9 -15 3 -30 24 -30 25 0 33 11 20 27 -13 15 -35 17 -44
3z"/>
<path d="M867 3895 c-8 -19 13 -31 24 -14 13 20 11 29 -5 29 -8 0 -16 -7 -19
-15z"/>
<path d="M1011 3897 c-6 -8 -8 -16 -5 -20 10 -9 34 4 34 19 0 18 -14 18 -29 1z"/>
<path d="M4080 3898 c0 -18 20 -38 38 -38 19 0 10 20 -16 38 -19 12 -22 12
-22 0z"/>
<path d="M4292 3888 c6 -18 28 -21 28 -4 0 9 -7 16 -16 16 -9 0 -14 -5 -12
-12z"/>
<path d="M4001 3881 c-10 -6 -10 -10 -1 -16 13 -8 24 -1 19 14 -3 6 -10 7 -18
2z"/>
<path d="M580 3865 c-7 -9 -11 -18 -8 -20 3 -3 11 1 18 10 7 9 11 18 8 20 -3
3 -11 -1 -18 -10z"/>
<path d="M616 3864 c-18 -18 -20 -30 -7 -39 12 -7 41 22 41 41 0 18 -15 18
-34 -2z"/>
<path d="M902 3868 c-18 -18 -15 -41 4 -34 9 3 18 6 20 6 2 0 4 9 4 20 0 23
-10 26 -28 8z"/>
<path d="M3700 3851 c0 -24 18 -37 31 -24 13 13 1 43 -17 43 -8 0 -14 -9 -14
-19z"/>
<path d="M3960 3845 c0 -8 7 -15 15 -15 8 0 15 7 15 15 0 8 -7 15 -15 15 -8 0
-15 -7 -15 -15z"/>
<path d="M1230 3840 c0 -5 4 -10 9 -10 6 0 13 5 16 10 3 6 -1 10 -9 10 -9 0
-16 -4 -16 -10z"/>
<path d="M1047 3833 c-12 -11 -7 -33 7 -33 8 0 16 -7 20 -15 3 -8 12 -15 21
-15 8 0 15 7 15 15 0 8 -6 15 -14 15 -7 0 -16 9 -19 20 -5 20 -18 26 -30 13z"/>
<path d="M4270 3825 c0 -23 47 -42 63 -26 9 10 8 15 -7 27 -26 18 -56 18 -56
-1z"/>
<path d="M4372 3828 c-16 -16 -15 -55 1 -65 13 -8 44 -92 39 -107 -6 -19 30
-44 64 -44 20 0 44 -8 55 -18 23 -21 25 -5 4 36 -16 31 -57 42 -70 20 -11 -18
-36 10 -29 32 3 10 -1 30 -10 43 -9 13 -16 40 -16 58 0 40 -20 63 -38 45z"/>
<path d="M734 3790 c4 -25 2 -36 -11 -46 -10 -7 -15 -16 -10 -20 4 -4 21 6 38
21 35 35 36 68 0 73 -22 3 -23 1 -17 -28z"/>
<path d="M4230 3815 c0 -14 21 -45 31 -45 18 0 5 45 -13 48 -10 2 -18 1 -18
-3z"/>
<path d="M900 3794 c0 -17 22 -14 28 4 2 7 -3 12 -12 12 -9 0 -16 -7 -16 -16z"/>
<path d="M4090 3795 c0 -8 7 -15 15 -15 8 0 15 4 15 9 0 5 -7 11 -15 15 -9 3
-15 0 -15 -9z"/>
<path d="M587 3793 c-8 -8 -9 -43 -1 -43 16 0 44 23 44 35 0 15 -31 21 -43 8z"/>
<path d="M4156 3758 c-23 -23 -26 -32 -16 -38 9 -6 22 0 37 16 43 46 23 67
-21 22z"/>
<path d="M4440 3781 c0 -6 4 -13 10 -16 6 -3 7 1 4 9 -7 18 -14 21 -14 7z"/>
<path d="M663 3765 c-3 -9 -3 -19 1 -22 8 -9 37 18 30 28 -8 14 -24 11 -31 -6z"/>
<path d="M863 3773 c-16 -6 -17 -33 -3 -33 11 0 26 28 19 34 -2 2 -10 1 -16
-1z"/>
<path d="M510 3754 c0 -9 5 -14 12 -12 18 6 21 28 4 28 -9 0 -16 -7 -16 -16z"/>
<path d="M4332 3736 c1 -10 8 -17 13 -17 15 1 12 24 -3 29 -9 3 -13 -2 -10
-12z"/>
<path d="M586 3709 c-9 -13 -16 -29 -16 -36 0 -21 18 -15 36 13 23 34 4 56
-20 23z"/>
<path d="M463 3688 c-37 -63 -35 -68 13 -36 28 19 44 36 42 46 -6 30 -35 24
-55 -10z"/>
<path d="M4230 3711 c0 -5 6 -14 14 -20 16 -13 32 2 21 19 -8 12 -35 13 -35 1z"/>
<path d="M4490 3701 c0 -5 5 -13 10 -16 6 -3 10 -2 10 4 0 5 -4 13 -10 16 -5
3 -10 2 -10 -4z"/>
<path d="M632 3688 c-7 -7 -12 -19 -12 -27 0 -11 5 -9 20 7 11 12 20 24 20 27
0 9 -16 5 -28 -7z"/>
<path d="M3975 3690 c3 -5 10 -10 16 -10 5 0 9 5 9 10 0 6 -7 10 -16 10 -8 0
-12 -4 -9 -10z"/>
<path d="M680 3670 c0 -19 3 -21 12 -12 9 9 9 15 0 24 -9 9 -12 7 -12 -12z"/>
<path d="M4310 3662 c0 -17 9 -37 21 -48 l22 -19 -7 40 c-9 46 -13 55 -27 55
-5 0 -9 -13 -9 -28z"/>
<path d="M523 3668 c-6 -7 -8 -30 -6 -50 6 -41 29 -51 53 -23 10 13 10 19 -4
33 -9 10 -16 26 -16 35 0 20 -14 22 -27 5z"/>
<path d="M703 3633 c-15 -5 -18 -33 -4 -33 13 0 33 28 24 33 -4 2 -14 2 -20 0z"/>
<path d="M897 3633 c-12 -11 -8 -23 8 -23 8 0 15 7 15 15 0 16 -12 20 -23 8z"/>
<path d="M4190 3620 c0 -5 5 -10 11 -10 5 0 7 5 4 10 -3 6 -8 10 -11 10 -2 0
-4 -4 -4 -10z"/>
<path d="M4232 3619 c2 -7 10 -15 17 -17 8 -3 12 1 9 9 -2 7 -10 15 -17 17 -8
3 -12 -1 -9 -9z"/>
<path d="M746 3613 c-11 -11 -6 -23 9 -23 8 0 15 4 15 9 0 13 -16 22 -24 14z"/>
<path d="M402 3585 c-6 -14 -7 -25 -2 -25 9 0 25 39 18 46 -3 2 -10 -7 -16
-21z"/>
<path d="M453 3593 c-7 -3 -13 -14 -13 -26 0 -20 1 -20 16 -5 18 18 16 37 -3
31z"/>
<path d="M613 3583 c-15 -6 -17 -53 -3 -53 6 0 13 6 16 14 8 22 1 44 -13 39z"/>
<path d="M777 3583 c-4 -3 -7 -15 -7 -25 0 -22 26 -24 34 -2 10 25 -10 45 -27
27z"/>
<path d="M3916 3573 c-11 -11 -6 -23 9 -23 8 0 15 4 15 9 0 13 -16 22 -24 14z"/>
<path d="M4155 3570 c-4 -6 -3 -16 3 -22 6 -6 12 -6 17 2 4 6 3 16 -3 22 -6 6
-12 6 -17 -2z"/>
<path d="M4272 3568 c7 -19 38 -22 38 -4 0 10 -9 16 -21 16 -12 0 -19 -5 -17
-12z"/>
<path d="M4502 3549 c2 -18 9 -34 16 -37 10 -3 13 5 10 29 -2 18 -9 34 -16 37
-10 3 -13 -5 -10 -29z"/>
<path d="M4555 3571 c-9 -15 8 -35 24 -30 8 3 7 10 -2 23 -10 14 -16 16 -22 7z"/>
<path d="M483 3505 c-1 -36 2 -65 7 -65 19 0 31 42 24 85 -10 68 -29 56 -31
-20z"/>
<path d="M4430 3541 c5 -11 10 -28 10 -38 0 -24 26 -60 36 -50 4 4 2 18 -6 31
-7 14 -10 31 -7 39 6 17 -11 37 -30 37 -10 0 -11 -5 -3 -19z"/>
<path d="M4002 3538 c6 -18 28 -21 28 -4 0 9 -7 16 -16 16 -9 0 -14 -5 -12
-12z"/>
<path d="M4390 3526 c0 -9 7 -16 16 -16 9 0 14 5 12 12 -6 18 -28 21 -28 4z"/>
<path d="M355 3489 c-20 -38 -14 -46 22 -30 26 12 42 3 43 -23 0 -11 30 14 30
25 0 5 -9 9 -19 9 -12 0 -21 9 -25 25 -9 34 -32 31 -51 -6z"/>
<path d="M4531 3492 c-21 -26 -20 -52 1 -79 12 -15 2 -33 -17 -33 -8 0 -18 -7
-23 -17 -6 -10 -16 -14 -26 -10 -23 9 -18 -22 6 -37 14 -8 22 -5 40 17 13 15
30 27 37 27 10 0 12 11 7 49 -5 37 -3 53 9 64 19 19 19 33 1 40 -7 3 -23 -6
-35 -21z"/>
<path d="M574 3495 c-7 -19 7 -50 22 -50 16 0 15 41 0 55 -13 10 -17 9 -22 -5z"/>
<path d="M4300 3485 c0 -18 24 -30 39 -21 16 10 1 36 -20 36 -10 0 -19 -7 -19
-15z"/>
<path d="M4584 3455 c-7 -27 10 -55 33 -55 20 0 25 22 14 53 -13 34 -39 35
-47 2z"/>
<path d="M685 3460 c-8 -13 4 -32 16 -25 12 8 12 35 0 35 -6 0 -13 -4 -16 -10z"/>
<path d="M4410 3461 c0 -6 5 -13 10 -16 6 -3 10 1 10 9 0 9 -4 16 -10 16 -5 0
-10 -4 -10 -9z"/>
<path d="M4220 3425 c0 -9 5 -15 11 -13 6 2 11 8 11 13 0 5 -5 11 -11 13 -6 2
-11 -4 -11 -13z"/>
<path d="M804 3416 c-8 -22 3 -33 18 -18 9 9 9 15 0 24 -9 9 -13 7 -18 -6z"/>
<path d="M454 3409 c-10 -16 16 -58 32 -52 17 6 18 35 2 51 -15 15 -25 15 -34
1z"/>
<path d="M1994 3412 c-31 -20 -34 -54 -34 -376 l0 -326 520 0 520 0 0 335 c0
322 -1 336 -20 355 -19 19 -33 20 -497 20 -263 0 -483 -4 -489 -8z m936 -342
l0 -290 -450 0 -450 0 0 290 0 290 450 0 450 0 0 -290z"/>
<path d="M2516 3272 c-13 -21 -125 -405 -120 -413 3 -5 14 -9 24 -9 16 0 28
28 70 163 28 89 58 182 66 206 8 25 14 48 14 53 0 10 -47 11 -54 0z"/>
<path d="M2263 3153 c-62 -39 -73 -50 -73 -73 0 -24 11 -35 75 -75 75 -46 95
-50 95 -16 0 22 -22 42 -75 69 l-39 20 52 28 c46 26 52 33 52 62 0 17 -3 32
-7 31 -5 0 -41 -21 -80 -46z"/>
<path d="M2610 3170 c0 -21 7 -34 25 -45 14 -8 37 -22 51 -31 l27 -16 -52 -30
c-43 -25 -51 -34 -51 -59 0 -16 3 -29 7 -29 3 0 42 21 85 46 106 62 106 77 1
144 -43 28 -81 50 -85 50 -5 0 -8 -13 -8 -30z"/>
<path d="M329 3388 c-7 -13 -18 -27 -25 -31 -8 -4 -14 -17 -14 -28 0 -18 4
-17 40 12 40 32 53 69 25 69 -8 0 -20 -10 -26 -22z"/>
<path d="M4380 3401 c0 -12 29 -35 36 -28 11 10 -5 37 -21 37 -8 0 -15 -4 -15
-9z"/>
<path d="M4142 3388 c6 -18 28 -21 28 -4 0 9 -7 16 -16 16 -9 0 -14 -5 -12
-12z"/>
<path d="M4267 3384 c-8 -8 1 -24 14 -24 5 0 9 7 9 15 0 15 -12 20 -23 9z"/>
<path d="M565 3371 c-3 -5 -1 -12 5 -16 12 -7 30 2 30 16 0 12 -27 12 -35 0z"/>
<path d="M4606 3371 c-3 -5 1 -14 8 -20 16 -13 32 2 21 19 -8 12 -22 13 -29 1z"/>
<path d="M4655 3328 c0 -42 4 -53 18 -56 20 -4 22 15 6 71 -14 52 -24 46 -24
-15z"/>
<path d="M365 3361 c-6 -11 9 -23 19 -14 9 9 7 23 -3 23 -6 0 -12 -4 -16 -9z"/>
<path d="M440 3326 c0 -19 -7 -41 -15 -50 -23 -23 -19 -48 8 -44 20 3 22 9 25
66 2 38 -1 62 -8 62 -5 0 -10 -15 -10 -34z"/>
<path d="M4365 3320 c-4 -6 -3 -16 3 -22 6 -6 12 -6 17 2 4 6 3 16 -3 22 -6 6
-12 6 -17 -2z"/>
<path d="M4135 3310 c-8 -14 3 -30 21 -30 16 0 16 2 8 24 -7 18 -20 21 -29 6z"/>
<path d="M4572 3303 c-5 -10 -7 -24 -5 -30 7 -20 31 -15 38 7 12 36 -16 55
-33 23z"/>
<path d="M4470 3286 c0 -15 18 -31 26 -23 7 7 -7 37 -17 37 -5 0 -9 -6 -9 -14z"/>
<path d="M537 3284 c-4 -4 -7 -14 -7 -23 0 -11 3 -12 11 -4 6 6 10 16 7 23 -2
6 -7 8 -11 4z"/>
<path d="M700 3280 c0 -5 5 -10 10 -10 6 0 10 5 10 10 0 6 -4 10 -10 10 -5 0
-10 -4 -10 -10z"/>
<path d="M296 3258 c-15 -21 -22 -58 -11 -58 15 0 45 38 45 57 0 29 -14 29
-34 1z"/>
<path d="M650 3271 c0 -6 5 -13 10 -16 6 -3 10 1 10 9 0 9 -4 16 -10 16 -5 0
-10 -4 -10 -9z"/>
<path d="M4215 3270 c3 -5 8 -10 11 -10 2 0 4 5 4 10 0 6 -5 10 -11 10 -5 0
-7 -4 -4 -10z"/>
<path d="M4254 3249 c-8 -14 11 -33 25 -25 11 7 4 36 -9 36 -5 0 -12 -5 -16
-11z"/>
<path d="M250 3234 c0 -8 5 -12 10 -9 6 3 10 10 10 16 0 5 -4 9 -10 9 -5 0
-10 -7 -10 -16z"/>
<path d="M345 3231 c-3 -5 -1 -12 5 -16 12 -7 30 2 30 16 0 12 -27 12 -35 0z"/>
<path d="M492 3228 c6 -18 28 -21 28 -4 0 9 -7 16 -16 16 -9 0 -14 -5 -12 -12z"/>
<path d="M4442 3228 c6 -18 28 -21 28 -4 0 9 -7 16 -16 16 -9 0 -14 -5 -12
-12z"/>
<path d="M4500 3230 c0 -5 5 -10 11 -10 5 0 7 5 4 10 -3 6 -8 10 -11 10 -2 0
-4 -4 -4 -10z"/>
<path d="M4535 3220 c-7 -12 2 -30 16 -30 12 0 12 27 0 35 -5 3 -12 1 -16 -5z"/>
<path d="M4621 3217 c-13 -17 -5 -47 14 -47 19 0 28 32 12 47 -12 12 -16 12
-26 0z"/>
<path d="M4410 3203 c0 -10 4 -25 10 -33 8 -12 10 -12 16 3 7 20 -1 47 -16 47
-5 0 -10 -8 -10 -17z"/>
<path d="M4674 3198 c-9 -14 -9 -126 0 -135 3 -4 6 -12 6 -19 0 -7 18 -31 41
-53 22 -23 37 -46 33 -52 -4 -6 -6 -36 -5 -67 0 -33 -4 -59 -11 -63 -8 -5 -8
-15 2 -38 24 -60 41 -32 34 57 -3 47 -1 61 11 66 16 6 21 56 6 56 -4 0 -6 11
-3 25 2 13 1 33 -3 42 -6 17 -7 17 -16 1 -6 -10 -13 -18 -17 -18 -12 0 -42 56
-42 79 0 12 -4 21 -10 21 -11 0 -14 30 -2 30 4 0 13 4 20 9 12 7 11 14 -2 40
-17 33 -30 39 -42 19z"/>
<path d="M237 3185 c-9 -23 11 -28 23 -5 8 16 8 20 -4 20 -7 0 -16 -7 -19 -15z"/>
<path d="M392 3188 c-7 -7 -12 -18 -12 -25 0 -8 -11 -13 -27 -12 -36 2 -83
-17 -83 -33 0 -7 -6 -25 -14 -40 -18 -33 -20 -121 -3 -115 7 2 12 21 13 43 1
31 9 48 41 82 24 26 44 39 48 33 8 -15 25 -14 25 1 0 6 10 22 22 35 14 15 18
27 12 33 -7 7 -14 6 -22 -2z"/>
<path d="M522 3188 c6 -18 28 -21 28 -4 0 9 -7 16 -16 16 -9 0 -14 -5 -12 -12z"/>
<path d="M4360 3185 c0 -8 7 -15 15 -15 8 0 15 7 15 15 0 8 -7 15 -15 15 -8 0
-15 -7 -15 -15z"/>
<path d="M4540 3146 c0 -21 37 -76 51 -76 17 0 8 25 -21 60 -23 26 -30 30 -30
16z"/>
<path d="M4592 3151 c2 -7 7 -12 11 -12 12 1 9 15 -3 20 -7 2 -11 -2 -8 -8z"/>
<path d="M745 3137 c-4 -10 -5 -21 -1 -24 10 -10 18 4 13 24 -4 17 -4 17 -12
0z"/>
<path d="M440 3125 c0 -9 5 -15 11 -13 6 2 11 8 11 13 0 5 -5 11 -11 13 -6 2
-11 -4 -11 -13z"/>
<path d="M4732 3118 c-16 -16 -15 -45 2 -51 18 -7 26 1 26 29 0 28 -13 37 -28
22z"/>
<path d="M204 3083 c-3 -16 -7 -34 -10 -40 -5 -17 1 -16 20 3 18 17 22 64 6
64 -5 0 -12 -12 -16 -27z"/>
<path d="M4343 3090 c-43 -17 -19 -45 24 -29 15 5 21 14 17 24 -7 17 -10 17
-41 5z"/>
<path d="M4482 3091 c2 -7 7 -12 11 -12 12 1 9 15 -3 20 -7 2 -11 -2 -8 -8z"/>
<path d="M470 3065 c0 -8 5 -15 10 -15 6 0 10 7 10 15 0 8 -4 15 -10 15 -5 0
-10 -7 -10 -15z"/>
<path d="M4440 3055 c0 -14 8 -29 21 -35 29 -16 33 -8 12 29 -22 37 -33 40
-33 6z"/>
<path d="M715 3061 c-3 -5 -1 -12 5 -16 5 -3 10 1 10 9 0 18 -6 21 -15 7z"/>
<path d="M4236 3061 c-4 -7 -5 -15 -2 -18 9 -9 19 4 14 18 -4 11 -6 11 -12 0z"/>
<path d="M363 3029 c-4 -16 -11 -19 -29 -15 -32 8 -38 -9 -9 -28 23 -15 26
-15 51 9 16 15 24 31 20 40 -8 22 -27 19 -33 -6z"/>
<path d="M4635 3031 c-3 -6 -11 -9 -16 -6 -17 11 -31 -6 -18 -21 10 -12 14
-12 21 -2 15 23 58 -37 58 -81 0 -20 7 -46 15 -57 19 -26 19 -36 -2 -33 -25 3
-53 -11 -53 -26 0 -22 22 -29 32 -11 5 9 20 16 33 16 29 0 31 11 10 70 -8 23
-15 54 -15 69 -1 30 -54 98 -65 82z"/>
<path d="M437 3013 c-12 -11 -8 -23 8 -23 8 0 15 7 15 15 0 16 -12 20 -23 8z"/>
<path d="M4510 2986 c0 -8 5 -18 10 -21 6 -3 10 3 10 14 0 12 -4 21 -10 21 -5
0 -10 -6 -10 -14z"/>
<path d="M202 2975 c-12 -22 -4 -57 12 -52 15 5 20 47 8 59 -7 7 -13 4 -20 -7z"/>
<path d="M4245 2979 c-10 -15 3 -25 16 -12 7 7 7 13 1 17 -6 3 -14 1 -17 -5z"/>
<path d="M692 2966 c1 -10 8 -17 13 -17 15 1 12 24 -3 29 -9 3 -13 -2 -10 -12z"/>
<path d="M4596 2945 c-10 -8 -24 -11 -31 -9 -19 8 -29 -14 -15 -32 9 -10 16
-11 25 -4 6 5 15 7 19 3 4 -4 11 -1 17 7 8 13 11 12 24 -4 18 -24 35 -17 24
11 -12 32 -40 44 -63 28z"/>
<path d="M294 2935 c-4 -9 -2 -21 5 -28 6 -6 11 -21 11 -34 0 -22 19 -34 21
-13 5 61 1 85 -14 88 -10 2 -20 -4 -23 -13z"/>
<path d="M547 2943 c-12 -11 -8 -23 8 -23 8 0 15 7 15 15 0 16 -12 20 -23 8z"/>
<path d="M165 2905 c-16 -75 -15 -80 10 -41 11 17 13 30 6 47 -9 24 -9 24 -16
-6z"/>
<path d="M4405 2920 c-4 -6 -3 -16 3 -22 6 -6 12 -6 17 2 4 6 3 16 -3 22 -6 6
-12 6 -17 -2z"/>
<path d="M234 2875 c-3 -14 -3 -33 1 -42 6 -17 7 -17 21 1 19 26 18 66 -1 66
-8 0 -17 -11 -21 -25z"/>
<path d="M4395 2870 c-4 -6 -3 -16 3 -22 6 -6 12 -6 17 2 4 6 3 16 -3 22 -6 6
-12 6 -17 -2z"/>
<path d="M435 2859 c-11 -17 1 -21 15 -4 8 9 8 15 2 15 -6 0 -14 -5 -17 -11z"/>
<path d="M340 2839 c0 -11 5 -17 10 -14 6 3 10 13 10 21 0 8 -4 14 -10 14 -5
0 -10 -9 -10 -21z"/>
<path d="M577 2853 c-10 -9 -9 -43 2 -43 5 0 11 6 14 13 6 17 -7 40 -16 30z"/>
<path d="M380 2830 c0 -13 5 -20 13 -17 6 2 12 10 12 17 0 7 -6 15 -12 18 -8
2 -13 -5 -13 -18z"/>
<path d="M4801 2812 c-13 -38 -13 -45 2 -59 24 -25 30 -11 20 49 l-8 53 -14
-43z"/>
<path d="M4480 2821 c0 -12 57 -41 64 -33 15 14 5 34 -14 29 -11 -3 -23 -1
-26 4 -7 12 -24 12 -24 0z"/>
<path d="M4604 2815 c-8 -20 3 -48 16 -40 13 8 13 55 0 55 -6 0 -13 -7 -16
-15z"/>
<path d="M167 2793 c-16 -15 -5 -34 28 -50 28 -13 37 -14 50 -3 20 16 20 54 0
47 -8 -4 -17 -2 -20 3 -7 11 -48 13 -58 3z"/>
<path d="M457 2793 c-11 -10 -8 -43 3 -43 6 0 10 11 10 25 0 26 -2 29 -13 18z"/>
<path d="M4708 2768 c-3 -7 -1 -24 5 -38 l11 -25 4 29 c4 30 -12 57 -20 34z"/>
<path d="M4370 2761 c0 -6 5 -13 10 -16 6 -3 10 1 10 9 0 9 -4 16 -10 16 -5 0
-10 -4 -10 -9z"/>
<path d="M4325 2749 c-4 -6 -5 -13 -2 -16 7 -7 27 6 27 18 0 12 -17 12 -25 -2z"/>
<path d="M356 2743 c-12 -12 -6 -33 9 -33 8 0 15 6 15 14 0 17 -14 28 -24 19z"/>
<path d="M4216 2743 c-11 -11 -6 -23 9 -23 8 0 15 4 15 9 0 13 -16 22 -24 14z"/>
<path d="M141 2685 c-18 -62 -5 -95 16 -40 24 65 27 85 11 85 -8 0 -19 -19
-27 -45z"/>
<path d="M276 2721 c-9 -14 4 -41 21 -41 9 0 13 8 11 22 -3 23 -23 35 -32 19z"/>
<path d="M4625 2710 c-7 -11 12 -50 24 -50 15 0 22 32 10 46 -13 16 -25 18
-34 4z"/>
<path d="M4775 2701 c-9 -28 -1 -38 35 -43 26 -4 30 -1 30 18 0 12 -8 24 -17
28 -10 3 -23 9 -30 12 -6 3 -14 -4 -18 -15z"/>
<path d="M380 2690 c0 -5 5 -10 10 -10 6 0 10 5 10 10 0 6 -4 10 -10 10 -5 0
-10 -4 -10 -10z"/>
<path d="M4549 2680 c-12 -8 -10 -13 7 -31 22 -22 44 -19 44 6 0 20 -33 36
-51 25z"/>
<path d="M4730 2675 c0 -9 9 -35 20 -57 25 -53 25 -58 -2 -55 -18 2 -23 -3
-23 -23 0 -23 4 -25 40 -24 22 0 43 -4 47 -10 4 -6 9 -3 13 9 4 11 11 28 16
37 11 22 12 31 0 24 -14 -9 -41 4 -41 20 0 8 -4 14 -9 14 -5 0 -17 18 -27 40
-18 41 -34 52 -34 25z"/>
<path d="M187 2673 c-13 -12 -7 -31 19 -62 25 -30 44 -33 44 -8 -1 17 -55 78
-63 70z"/>
<path d="M1880 2660 c0 -23 31 -69 59 -89 29 -21 39 -21 545 -21 l515 0 41 38
c22 22 40 48 40 60 0 22 -1 22 -225 22 -212 0 -226 -1 -245 -20 -18 -18 -33
-20 -130 -20 -98 0 -112 2 -127 20 -17 19 -30 20 -245 20 -153 0 -228 -3 -228
-10z"/>
<path d="M282 2614 c2 -11 11 -20 22 -22 13 -3 17 1 14 14 -2 11 -11 20 -22
22 -13 3 -17 -1 -14 -14z"/>
<path d="M362 2618 c-20 -20 -14 -40 11 -36 14 2 23 11 25 26 4 24 -16 30 -36
10z"/>
<path d="M477 2624 c-3 -5 3 -28 13 -49 l18 -40 1 31 c1 32 -22 74 -32 58z"/>
<path d="M4692 2608 c5 -32 28 -35 28 -4 0 17 -5 26 -16 26 -10 0 -14 -7 -12
-22z"/>
<path d="M556 2601 c-3 -5 1 -14 9 -21 13 -10 15 -9 15 9 0 21 -14 28 -24 12z"/>
<path d="M4420 2595 c0 -8 5 -15 10 -15 6 0 10 7 10 15 0 8 -4 15 -10 15 -5 0
-10 -7 -10 -15z"/>
<path d="M250 2543 c-7 -21 -20 -46 -28 -56 -11 -12 -12 -21 -5 -28 14 -14 43
15 43 42 0 11 5 30 11 41 7 13 7 24 1 30 -6 6 -14 -3 -22 -29z"/>
<path d="M4637 2573 c-11 -10 -8 -41 5 -49 12 -8 38 21 38 43 0 13 -32 18 -43
6z"/>
<path d="M130 2555 c-15 -18 -6 -45 15 -45 9 0 15 9 15 24 0 31 -14 40 -30 21z"/>
<path d="M185 2551 c-7 -22 4 -53 16 -45 12 7 12 64 0 64 -5 0 -12 -8 -16 -19z"/>
<path d="M4517 2564 c-8 -8 1 -24 14 -24 5 0 9 7 9 15 0 15 -12 20 -23 9z"/>
<path d="M307 2543 c-9 -15 0 -77 12 -81 7 -2 11 13 11 42 0 41 -11 59 -23 39z"/>
<path d="M4440 2530 c0 -11 5 -20 10 -20 6 0 10 9 10 20 0 11 -4 20 -10 20 -5
0 -10 -9 -10 -20z"/>
<path d="M464 2506 c-8 -22 3 -33 18 -18 9 9 9 15 0 24 -9 9 -13 7 -18 -6z"/>
<path d="M4330 2495 c0 -8 5 -15 10 -15 6 0 10 7 10 15 0 8 -4 15 -10 15 -5 0
-10 -7 -10 -15z"/>
<path d="M4611 2488 c1 -13 4 -34 8 -48 10 -35 24 -8 16 30 -8 37 -25 50 -24
18z"/>
<path d="M4699 2473 c-2 -30 2 -48 14 -55 36 -23 50 10 21 50 -18 26 -34 28
-35 5z"/>
<path d="M4787 2473 c-4 -3 -7 -15 -7 -25 0 -18 -3 -26 -34 -86 -18 -34 -15
-52 10 -52 8 0 17 -6 20 -14 7 -19 -41 -122 -60 -129 -19 -8 -22 -61 -3 -55 6
3 23 25 37 50 14 26 33 55 43 65 9 11 17 28 17 39 0 11 9 27 20 37 24 20 17
41 -10 32 -46 -14 -45 67 1 91 29 14 29 14 9 34 -21 21 -32 24 -43 13z"/>
<path d="M125 2460 c-4 -6 -3 -16 3 -22 6 -6 12 -6 17 2 4 6 3 16 -3 22 -6 6
-12 6 -17 -2z"/>
<path d="M166 2451 c-7 -11 24 -91 36 -91 8 0 3 53 -7 88 -5 14 -21 16 -29 3z"/>
<path d="M350 2419 c0 -25 17 -59 30 -59 13 0 13 36 0 61 -14 25 -30 24 -30
-2z"/>
<path d="M4490 2425 c0 -8 5 -15 10 -15 6 0 10 7 10 15 0 8 -4 15 -10 15 -5 0
-10 -7 -10 -15z"/>
<path d="M4530 2431 c0 -6 5 -13 10 -16 6 -3 10 1 10 9 0 9 -4 16 -10 16 -5 0
-10 -4 -10 -9z"/>
<path d="M4654 2415 c-8 -20 5 -46 26 -53 10 -4 11 3 6 24 -10 39 -24 52 -32
29z"/>
<path d="M271 2386 c-5 -13 -17 -26 -25 -29 -19 -7 -21 -36 -4 -72 15 -33 32
-32 25 1 -6 31 10 94 23 94 6 0 10 7 10 15 0 23 -19 18 -29 -9z"/>
<path d="M554 2397 c-8 -21 2 -35 16 -21 5 5 6 15 0 24 -8 12 -10 12 -16 -3z"/>
<path d="M4580 2359 c0 -11 5 -17 10 -14 6 3 10 13 10 21 0 8 -4 14 -10 14 -5
0 -10 -9 -10 -21z"/>
<path d="M136 2339 c-9 -45 -8 -47 16 -51 44 -6 45 -98 1 -98 -11 0 -13 -7 -8
-27 12 -52 45 -56 45 -7 0 21 3 24 21 19 19 -6 21 -5 14 16 -4 13 -10 41 -12
62 -3 21 -11 41 -19 44 -8 3 -14 13 -14 23 0 54 -34 68 -44 19z"/>
<path d="M520 2335 c0 -8 5 -15 10 -15 6 0 10 7 10 15 0 8 -4 15 -10 15 -5 0
-10 -7 -10 -15z"/>
<path d="M654 2327 c-8 -21 2 -35 16 -21 5 5 6 15 0 24 -8 12 -10 12 -16 -3z"/>
<path d="M4390 2310 c0 -5 5 -10 10 -10 6 0 10 5 10 10 0 6 -4 10 -10 10 -5 0
-10 -4 -10 -10z"/>
<path d="M4577 2313 c-10 -9 -9 -23 2 -23 5 0 11 7 15 15 5 15 -5 20 -17 8z"/>
<path d="M4623 2270 c-10 -41 -6 -49 15 -28 13 13 17 68 4 68 -4 0 -13 -18
-19 -40z"/>
<path d="M4685 2299 c-4 -6 2 -13 14 -16 12 -3 21 -9 21 -14 0 -5 7 -9 15 -9
24 0 17 26 -10 38 -32 15 -32 15 -40 1z"/>
<path d="M330 2285 c-10 -12 -10 -18 0 -30 18 -22 30 -18 30 9 0 31 -14 40
-30 21z"/>
<path d="M410 2290 c0 -5 5 -10 10 -10 6 0 10 5 10 10 0 6 -4 10 -10 10 -5 0
-10 -4 -10 -10z"/>
<path d="M4827 2277 c-3 -8 -1 -20 4 -28 6 -10 9 -7 9 14 0 29 -5 35 -13 14z"/>
<path d="M4533 2255 c-3 -9 -3 -18 0 -21 9 -9 27 6 27 22 0 19 -19 18 -27 -1z"/>
<path d="M422 2243 c5 -25 28 -28 28 -4 0 12 -6 21 -16 21 -9 0 -14 -7 -12
-17z"/>
<path d="M230 2236 c0 -9 5 -16 10 -16 6 0 10 4 10 9 0 6 -4 13 -10 16 -5 3
-10 -1 -10 -9z"/>
<path d="M537 2244 c-11 -11 -8 -44 3 -44 15 0 24 30 13 41 -5 5 -12 6 -16 3z"/>
<path d="M970 1885 l0 -355 85 0 85 0 0 355 0 355 -85 0 -85 0 0 -355z"/>
<path d="M2020 1885 l0 -355 90 0 90 0 0 125 0 125 99 0 c148 0 223 34 276
125 20 33 26 58 26 102 1 73 -10 101 -58 154 -66 73 -89 79 -320 79 l-203 0 0
-355z m389 181 c14 -13 21 -31 21 -57 0 -57 -24 -69 -137 -69 l-93 0 0 76 0
76 94 -4 c75 -2 98 -7 115 -22z"/>
<path d="M3400 2165 l0 -75 105 0 105 0 0 -280 0 -280 85 0 85 0 0 280 0 280
105 0 105 0 0 75 0 75 -295 0 -295 0 0 -75z"/>
<path d="M4652 2224 c1 -9 9 -19 16 -22 9 -3 13 2 10 14 -1 9 -9 19 -16 22 -9
3 -13 -2 -10 -14z"/>
<path d="M4814 2217 c-2 -7 0 -24 5 -38 9 -22 10 -21 10 14 1 37 -5 48 -15 24z"/>
<path d="M250 2198 c0 -7 -3 -30 -6 -50 -4 -21 -3 -38 2 -38 12 0 36 78 29 91
-9 13 -25 11 -25 -3z"/>
<path d="M297 2203 c-12 -11 -8 -23 8 -23 8 0 15 7 15 15 0 16 -12 20 -23 8z"/>
<path d="M4185 2200 c-3 -5 -1 -10 4 -10 6 0 11 5 11 10 0 6 -2 10 -4 10 -3 0
-8 -4 -11 -10z"/>
<path d="M4440 2194 c0 -8 5 -12 10 -9 6 3 10 10 10 16 0 5 -4 9 -10 9 -5 0
-10 -7 -10 -16z"/>
<path d="M330 2184 c0 -8 5 -12 10 -9 6 4 8 11 5 16 -9 14 -15 11 -15 -7z"/>
<path d="M376 2181 c-7 -10 22 -37 30 -28 9 8 -3 37 -15 37 -5 0 -12 -4 -15
-9z"/>
<path d="M4622 2168 c-14 -14 -16 -68 -2 -68 10 0 40 52 40 70 0 14 -23 13
-38 -2z"/>
<path d="M271 2111 c-11 -20 -10 -30 4 -67 9 -24 23 -44 31 -44 11 0 11 5 2
28 -6 15 -14 45 -17 67 -7 39 -7 39 -20 16z"/>
<path d="M4360 2115 c-10 -12 -8 -16 15 -25 36 -14 42 -7 17 20 -17 18 -21 19
-32 5z"/>
<path d="M345 2108 c-4 -10 -4 -26 0 -35 6 -17 7 -17 16 0 7 11 7 23 0 35 -9
16 -10 16 -16 0z"/>
<path d="M1498 2107 c-102 -29 -176 -107 -197 -208 -6 -28 -11 -122 -11 -209
l0 -160 85 0 85 0 0 160 c0 181 12 230 61 255 36 19 92 19 129 0 53 -27 60
-56 60 -245 l0 -170 85 0 85 0 0 173 c0 204 -10 252 -70 319 -69 79 -203 115
-312 85z"/>
<path d="M4515 2080 c-14 -31 -16 -43 -7 -52 9 -9 12 -7 12 8 0 11 7 29 15 40
16 21 20 44 7 44 -5 0 -17 -18 -27 -40z"/>
<path d="M4801 2106 c-10 -12 -17 -14 -25 -6 -5 5 -16 10 -23 10 -17 0 -17
-49 1 -56 16 -6 70 40 64 57 -2 7 -8 6 -17 -5z"/>
<path d="M190 2091 c0 -11 -6 -26 -14 -34 -19 -18 -9 -59 13 -55 16 3 36 82
25 99 -9 16 -24 9 -24 -10z"/>
<path d="M2702 1928 c3 -161 6 -189 25 -230 84 -184 341 -225 485 -77 67 69
78 113 78 321 l0 168 -85 0 -85 0 0 -165 c0 -129 -3 -173 -15 -195 -33 -64
-131 -81 -185 -32 -41 36 -49 78 -50 250 l0 142 -86 0 -86 0 4 -182z"/>
<path d="M4430 2076 c0 -9 7 -16 16 -16 17 0 14 22 -4 28 -7 2 -12 -3 -12 -12z"/>
<path d="M470 2070 c0 -5 5 -10 11 -10 5 0 7 5 4 10 -3 6 -8 10 -11 10 -2 0
-4 -4 -4 -10z"/>
<path d="M4650 2065 c-15 -18 -15 -18 26 -34 32 -13 54 -46 54 -81 0 -33 19
-22 22 13 2 25 7 32 23 30 23 -2 35 13 35 45 0 21 -2 22 -22 10 -30 -16 -65
-11 -89 13 -23 23 -33 24 -49 4z"/>
<path d="M540 2041 c0 -12 5 -21 10 -21 6 0 10 6 10 14 0 8 -4 18 -10 21 -5 3
-10 -3 -10 -14z"/>
<path d="M224 2035 c-13 -33 32 -103 52 -82 7 7 -32 97 -42 97 -3 0 -7 -7 -10
-15z"/>
<path d="M338 2011 c-1 -17 -2 -38 -2 -48 -1 -9 5 -18 12 -20 7 -3 12 5 12 20
0 14 6 27 13 30 9 3 9 9 1 23 -18 30 -34 28 -36 -5z"/>
<path d="M430 2023 c0 -20 49 -85 50 -66 0 18 -32 83 -42 83 -4 0 -8 -8 -8
-17z"/>
<path d="M585 2030 c-7 -12 2 -30 16 -30 5 0 9 9 9 20 0 21 -15 27 -25 10z"/>
<path d="M4597 2023 c-12 -11 -8 -23 8 -23 8 0 15 7 15 15 0 16 -12 20 -23 8z"/>
<path d="M580 1975 c0 -8 5 -15 10 -15 6 0 10 7 10 15 0 8 -4 15 -10 15 -5 0
-10 -7 -10 -15z"/>
<path d="M186 1961 c-8 -13 11 -61 24 -61 6 0 9 -21 9 -47 -2 -41 13 -103 24
-103 2 0 2 14 -1 31 -5 36 22 63 50 48 25 -13 48 -11 48 5 0 8 -12 21 -27 28
-16 7 -32 23 -38 35 -5 12 -19 23 -30 25 -12 2 -21 12 -23 26 -3 22 -26 30
-36 13z m84 -96 c0 -8 -4 -15 -9 -15 -13 0 -22 16 -14 24 11 11 23 6 23 -9z"/>
<path d="M4520 1954 c0 -8 5 -12 10 -9 6 3 10 10 10 16 0 5 -4 9 -10 9 -5 0
-10 -7 -10 -16z"/>
<path d="M4594 1956 c-4 -10 -2 -22 4 -28 8 -8 13 -7 18 6 4 10 2 22 -4 28 -8
8 -13 7 -18 -6z"/>
<path d="M4637 1963 c-11 -10 -8 -51 3 -58 9 -6 30 33 30 56 0 10 -23 12 -33
2z"/>
<path d="M4314 1935 c-7 -17 4 -37 17 -30 12 8 12 45 -1 45 -6 0 -13 -7 -16
-15z"/>
<path d="M4519 1909 c-15 -29 3 -46 25 -24 9 9 16 23 16 31 0 21 -28 17 -41
-7z"/>
<path d="M365 1890 c-8 -14 3 -30 21 -30 8 0 14 9 14 20 0 21 -24 28 -35 10z"/>
<path d="M4662 1873 c3 -26 5 -28 48 -24 54 4 60 7 60 32 0 23 -8 24 -32 2
-17 -15 -19 -15 -36 0 -28 25 -44 21 -40 -10z"/>
<path d="M577 1884 c-8 -8 1 -24 14 -24 5 0 9 7 9 15 0 15 -12 20 -23 9z"/>
<path d="M4213 1855 c-3 -9 -3 -18 0 -21 9 -9 27 6 27 22 0 19 -19 18 -27 -1z"/>
<path d="M682 1848 c6 -18 28 -21 28 -4 0 9 -7 16 -16 16 -9 0 -14 -5 -12 -12z"/>
<path d="M4425 1849 c-4 -6 -5 -13 -2 -16 7 -7 27 6 27 18 0 12 -17 12 -25 -2z"/>
<path d="M436 1841 c-7 -11 17 -61 29 -61 10 0 4 37 -8 55 -10 13 -16 15 -21
6z"/>
<path d="M487 1843 c-10 -10 -8 -43 2 -43 9 0 21 24 21 41 0 11 -14 12 -23 2z"/>
<path d="M4592 1838 c-7 -7 -12 -17 -12 -24 0 -6 -7 -17 -15 -24 -21 -17 -19
-37 5 -43 23 -6 28 -37 6 -37 -8 0 -17 -9 -21 -19 -3 -11 -12 -22 -20 -25 -19
-7 -19 -40 0 -56 15 -13 19 -8 16 21 -1 9 5 22 14 29 8 7 15 19 15 26 0 8 6
14 14 14 23 0 26 38 4 65 -19 25 -19 25 1 25 20 0 37 32 26 50 -8 13 -18 13
-33 -2z"/>
<path d="M350 1803 c0 -25 15 -38 25 -22 4 6 0 18 -9 27 -15 15 -16 15 -16 -5z"/>
<path d="M4681 1796 c-40 -22 -55 -76 -21 -76 16 0 20 -7 20 -35 0 -19 4 -35
9 -35 17 0 31 59 21 86 -7 19 -6 31 6 49 19 29 5 33 -35 11z"/>
<path d="M4493 1785 c-3 -9 -3 -18 0 -21 9 -9 27 6 27 22 0 19 -19 18 -27 -1z"/>
<path d="M282 1719 c-3 -74 3 -109 19 -109 5 0 7 17 4 38 -3 20 -1 43 4 51 12
18 41 7 48 -19 3 -11 12 -20 19 -20 17 0 18 16 2 27 -7 4 -24 29 -37 56 -36
72 -56 64 -59 -24z"/>
<path d="M4100 1780 c0 -5 5 -10 10 -10 6 0 10 5 10 10 0 6 -4 10 -10 10 -5 0
-10 -4 -10 -10z"/>
<path d="M400 1751 c0 -21 29 -36 42 -23 6 6 3 16 -7 26 -22 21 -35 20 -35 -3z"/>
<path d="M4272 1758 c-8 -8 -9 -15 -1 -25 18 -21 41 -16 37 9 -4 26 -19 33
-36 16z"/>
<path d="M4397 1763 c-13 -13 -7 -20 18 -20 14 0 25 0 23 1 -2 1 -10 7 -19 14
-9 6 -19 9 -22 5z"/>
<path d="M540 1706 c0 -9 7 -16 16 -16 17 0 14 22 -4 28 -7 2 -12 -3 -12 -12z"/>
<path d="M4494 1685 c-9 -20 -14 -39 -10 -42 8 -9 13 -3 31 40 20 47 1 49 -21
2z"/>
<path d="M420 1698 c0 -9 5 -20 11 -23 17 -11 20 0 4 21 -13 17 -14 17 -15 2z"/>
<path d="M4443 1693 c-4 -10 -15 -24 -25 -31 -17 -12 -25 -42 -12 -42 13 0 64
60 64 74 0 22 -19 20 -27 -1z"/>
<path d="M584 1685 c-9 -24 22 -53 38 -37 9 9 10 17 2 29 -15 24 -33 27 -40 8z"/>
<path d="M4620 1671 c0 -11 -4 -23 -10 -26 -5 -3 -10 -14 -10 -23 0 -20 -72
-82 -94 -82 -9 0 -16 -8 -16 -20 0 -17 5 -19 33 -13 38 7 57 20 57 40 0 10 6
12 20 8 13 -4 21 -1 24 7 2 7 9 31 16 53 9 27 10 40 2 43 -6 2 -8 10 -5 18 3
8 0 14 -6 14 -6 0 -11 -9 -11 -19z"/>
<path d="M460 1666 c0 -8 12 -29 27 -48 15 -18 28 -35 30 -37 2 -2 6 -1 9 2 7
6 -41 83 -58 93 -4 3 -8 -1 -8 -10z"/>
<path d="M730 1661 c0 -6 5 -13 10 -16 6 -3 10 1 10 9 0 9 -4 16 -10 16 -5 0
-10 -4 -10 -9z"/>
<path d="M336 1624 c-15 -15 -15 -46 0 -121 9 -46 34 -13 34 45 0 15 6 22 20
22 25 0 25 5 -1 41 -23 33 -31 35 -53 13z"/>
<path d="M720 1617 c0 -8 7 -18 16 -21 11 -4 14 -1 12 11 -4 21 -28 30 -28 10z"/>
<path d="M4453 1594 c-3 -8 1 -23 10 -32 15 -14 17 -14 23 1 8 21 -1 47 -16
47 -6 0 -13 -7 -17 -16z"/>
<path d="M424 1589 c-3 -6 3 -21 15 -32 17 -18 21 -19 21 -5 0 39 -21 61 -36
37z"/>
<path d="M4186 1573 c-11 -11 -6 -23 9 -23 8 0 15 4 15 9 0 13 -16 22 -24 14z"/>
<path d="M4413 1563 c-16 -6 -17 -33 -3 -33 11 0 26 28 19 34 -2 2 -10 1 -16
-1z"/>
<path d="M4080 1544 c-9 -10 -10 -18 -2 -26 12 -12 32 -2 32 17 0 21 -16 26
-30 9z"/>
<path d="M4226 1544 c-4 -9 -4 -19 -1 -22 6 -6 35 18 35 29 0 16 -28 10 -34
-7z"/>
<path d="M4623 1533 c-7 -3 -13 -11 -13 -19 0 -8 -11 -19 -25 -24 -27 -10 -34
-30 -10 -30 9 0 15 -9 16 -22 0 -17 7 -10 25 27 26 52 28 75 7 68z"/>
<path d="M536 1515 c-3 -9 -19 -15 -41 -15 -34 0 -46 -12 -25 -25 6 -3 10 -24
10 -45 0 -49 15 -90 34 -90 11 0 13 10 9 43 -4 23 -10 44 -14 45 -18 7 -9 42
9 42 21 0 52 29 52 48 0 17 -27 15 -34 -3z"/>
<path d="M400 1497 c0 -7 7 -23 16 -36 21 -30 38 -14 25 22 -11 27 -41 38 -41
14z"/>
<path d="M4330 1481 c0 -26 17 -36 35 -21 23 19 18 40 -10 40 -18 0 -25 -5
-25 -19z"/>
<path d="M912 1464 c1 -9 9 -19 16 -22 9 -3 13 2 10 14 -1 9 -9 19 -16 22 -9
3 -13 -2 -10 -14z"/>
<path d="M656 1462 c-7 -11 31 -48 41 -38 4 3 -2 16 -14 27 -11 12 -23 17 -27
11z"/>
<path d="M4387 1463 c-4 -3 -7 -15 -7 -26 0 -16 3 -17 15 -7 8 7 15 19 15 26
0 15 -12 19 -23 7z"/>
<path d="M4426 1453 c-12 -12 -6 -33 9 -33 8 0 15 6 15 14 0 17 -14 28 -24 19z"/>
<path d="M4515 1439 c-5 -15 -9 -18 -15 -9 -6 9 -13 7 -29 -9 -33 -33 -27 -49
19 -46 32 2 43 -2 52 -18 10 -20 11 -20 23 4 15 26 2 54 -21 45 -20 -8 -24 5
-7 30 14 22 14 24 0 24 -9 0 -19 -10 -22 -21z"/>
<path d="M622 1426 c1 -10 8 -17 13 -17 15 1 12 24 -3 29 -9 3 -13 -2 -10 -12z"/>
<path d="M830 1432 c0 -10 22 -32 32 -32 4 0 8 9 8 20 0 13 -7 20 -20 20 -11
0 -20 -4 -20 -8z"/>
<path d="M409 1396 c-22 -47 60 -147 86 -106 4 6 -8 24 -25 40 -20 18 -30 36
-26 45 6 18 -2 45 -15 45 -5 0 -14 -11 -20 -24z"/>
<path d="M587 1414 c-8 -8 3 -34 14 -34 11 0 12 27 0 34 -4 3 -11 3 -14 0z"/>
<path d="M4176 1394 c-4 -11 -1 -14 11 -12 9 2 18 9 21 16 6 18 -25 15 -32 -4z"/>
<path d="M4293 1403 c-16 -6 -17 -33 -3 -33 11 0 26 28 19 34 -2 2 -10 1 -16
-1z"/>
<path d="M4374 1365 c-9 -22 1 -29 15 -11 8 10 9 16 1 21 -5 3 -13 -1 -16 -10z"/>
<path d="M860 1356 c0 -16 32 -46 48 -46 16 0 15 25 0 37 -24 18 -48 23 -48 9z"/>
<path d="M4045 1359 c-4 -6 -5 -13 -2 -16 7 -7 27 6 27 18 0 12 -17 12 -25 -2z"/>
<path d="M4197 1364 c-4 -4 -4 -10 -1 -15 6 -10 34 0 34 12 0 10 -24 12 -33 3z"/>
<path d="M762 1349 c2 -7 10 -15 17 -17 8 -3 12 1 9 9 -2 7 -10 15 -17 17 -8
3 -12 -1 -9 -9z"/>
<path d="M555 1340 c3 -5 8 -10 11 -10 2 0 4 5 4 10 0 6 -5 10 -11 10 -5 0 -7
-4 -4 -10z"/>
<path d="M683 1343 c-18 -7 -16 -40 2 -47 11 -4 19 3 25 20 6 14 10 27 10 30
0 5 -21 4 -37 -3z"/>
<path d="M4484 1325 c-11 -27 1 -39 19 -21 17 17 15 36 -4 36 -5 0 -12 -7 -15
-15z"/>
<path d="M522 1311 c-19 -11 -11 -45 11 -49 9 -2 20 4 23 13 9 21 -16 47 -34
36z"/>
<path d="M3870 1299 c-7 -11 -9 -23 -6 -26 8 -9 36 17 36 33 0 21 -18 17 -30
-7z"/>
<path d="M4150 1310 c0 -5 5 -10 10 -10 6 0 10 5 10 10 0 6 -4 10 -10 10 -5 0
-10 -4 -10 -10z"/>
<path d="M4273 1306 c13 -10 16 -21 11 -40 -10 -40 13 -32 31 10 8 20 15 38
15 40 0 2 -17 4 -37 4 -34 -1 -36 -2 -20 -14z"/>
<path d="M4364 1295 c-3 -14 -3 -29 1 -33 8 -8 37 28 32 42 -7 21 -27 16 -33
-9z"/>
<path d="M4216 1302 c-8 -13 11 -35 23 -28 16 10 14 36 -3 36 -8 0 -17 -4 -20
-8z"/>
<path d="M607 1288 c-7 -20 11 -58 28 -58 17 0 20 23 5 51 -12 22 -26 25 -33
7z"/>
<path d="M4412 1278 c2 -12 10 -23 18 -23 22 0 19 39 -3 43 -15 3 -18 -1 -15
-20z"/>
<path d="M4078 1273 c-16 -8 -28 -21 -28 -29 0 -16 16 -19 25 -3 4 5 18 14 31
19 25 10 33 31 12 29 -7 -1 -25 -8 -40 -16z"/>
<path d="M872 1268 c6 -18 28 -21 28 -4 0 9 -7 16 -16 16 -9 0 -14 -5 -12 -12z"/>
<path d="M4441 1242 c-17 -20 -27 -38 -22 -40 19 -6 71 29 71 48 0 33 -16 30
-49 -8z"/>
<path d="M4355 1220 c-8 -16 -15 -44 -15 -62 0 -38 -35 -101 -53 -95 -7 2 -12
13 -12 24 -1 24 -22 53 -40 53 -7 0 -18 -7 -26 -16 -10 -13 -8 -19 14 -40 30
-27 35 -65 12 -84 -17 -14 -20 -46 -4 -55 17 -11 49 26 49 56 0 20 9 32 35 48
20 11 35 28 35 38 0 10 6 27 14 38 16 24 29 125 16 125 -5 0 -16 -13 -25 -30z"/>
<path d="M480 1233 c0 -21 61 -74 78 -69 24 8 54 -42 41 -67 -16 -27 6 -59 36
-51 20 5 25 2 25 -14 0 -11 11 -27 25 -36 14 -9 25 -24 25 -33 0 -13 -5 -12
-25 7 -41 38 -28 9 20 -45 l44 -50 -4 45 c-2 25 -9 46 -15 48 -5 2 -10 16 -10
32 0 15 -7 33 -15 40 -8 7 -15 23 -15 36 0 14 -4 32 -9 42 -5 9 -12 25 -15 36
-5 13 -12 17 -30 12 -19 -5 -26 1 -42 29 -20 37 -34 45 -34 19 0 -18 -35 -11
-62 14 -10 8 -18 11 -18 5z m173 -123 c3 -11 2 -20 -3 -20 -8 0 -20 24 -20 41
0 17 17 1 23 -21z"/>
<path d="M772 1228 c-7 -7 -12 -20 -12 -31 0 -24 33 -19 38 7 5 24 -11 39 -26
24z"/>
<path d="M690 1195 c0 -17 36 -39 44 -26 4 5 3 16 0 25 -8 20 -44 21 -44 1z"/>
<path d="M4155 1200 c-3 -5 1 -10 9 -10 9 0 16 5 16 10 0 6 -4 10 -9 10 -6 0
-13 -4 -16 -10z"/>
<path d="M4253 1185 c-7 -20 2 -29 21 -22 9 4 13 13 10 22 -8 19 -23 19 -31 0z"/>
<path d="M4215 1179 c-4 -6 -5 -13 -2 -16 7 -7 27 6 27 18 0 12 -17 12 -25 -2z"/>
<path d="M800 1175 c0 -3 4 -13 9 -23 6 -9 12 -29 16 -44 3 -16 12 -28 20 -28
19 0 19 5 -1 57 -9 24 -23 43 -30 43 -8 0 -14 -2 -14 -5z"/>
<path d="M4416 1155 c-23 -18 -49 -65 -35 -65 11 0 42 33 60 63 12 20 1 22
-25 2z"/>
<path d="M4127 1153 c-12 -11 -8 -23 8 -23 8 0 15 7 15 15 0 16 -12 20 -23 8z"/>
<path d="M910 1141 c0 -13 29 -35 37 -28 7 8 -15 37 -28 37 -5 0 -9 -4 -9 -9z"/>
<path d="M4045 1121 c-6 -11 9 -23 19 -14 9 9 7 23 -3 23 -6 0 -12 -4 -16 -9z"/>
<path d="M4167 1123 c-4 -3 -7 -13 -7 -21 0 -12 3 -12 15 -2 8 7 15 16 15 21
0 11 -14 12 -23 2z"/>
<path d="M3920 1104 c0 -8 5 -12 10 -9 6 3 10 10 10 16 0 5 -4 9 -10 9 -5 0
-10 -7 -10 -16z"/>
<path d="M712 1098 c6 -16 36 -34 44 -25 9 9 -15 37 -33 37 -8 0 -13 -5 -11
-12z"/>
<path d="M4080 1094 c0 -8 5 -12 10 -9 6 3 10 10 10 16 0 5 -4 9 -10 9 -5 0
-10 -7 -10 -16z"/>
<path d="M830 1052 c0 -14 48 -54 60 -50 15 5 -27 58 -46 58 -8 0 -14 -4 -14
-8z"/>
<path d="M1042 1043 c2 -10 10 -18 18 -18 22 0 18 29 -3 33 -14 3 -18 -1 -15
-15z"/>
<path d="M782 1028 c2 -12 11 -24 21 -26 14 -3 18 1 15 20 -2 12 -11 24 -21
26 -14 3 -18 -1 -15 -20z"/>
<path d="M3964 1016 c-11 -17 -13 -30 -6 -42 8 -15 11 -14 26 7 18 26 21 59 6
59 -5 0 -17 -11 -26 -24z"/>
<path d="M980 1001 c0 -33 16 -49 33 -32 7 7 7 18 -1 36 -16 34 -32 32 -32 -4z"/>
<path d="M4150 1015 c-16 -19 -5 -45 18 -45 17 0 51 27 41 33 -44 25 -48 26
-59 12z"/>
<path d="M4303 1018 c2 -7 10 -13 17 -13 7 0 15 6 18 13 2 7 -5 12 -18 12 -13
0 -20 -5 -17 -12z"/>
<path d="M3790 995 c0 -8 7 -15 15 -15 8 0 15 7 15 15 0 8 -7 15 -15 15 -8 0
-15 -7 -15 -15z"/>
<path d="M4097 993 c-4 -3 -7 -12 -7 -20 0 -11 5 -11 20 -3 11 6 20 15 20 20
0 11 -23 13 -33 3z"/>
<path d="M3565 960 c-3 -5 -2 -10 4 -10 5 0 13 5 16 10 3 6 2 10 -4 10 -5 0
-13 -4 -16 -10z"/>
<path d="M810 952 c0 -5 7 -16 16 -23 14 -12 16 -11 13 5 -4 20 -29 35 -29 18z"/>
<path d="M880 945 c0 -16 78 -65 104 -65 27 0 13 23 -20 33 -16 5 -38 18 -50
28 -24 23 -34 24 -34 4z"/>
<path d="M1302 928 c6 -18 28 -21 28 -4 0 9 -7 16 -16 16 -9 0 -14 -5 -12 -12z"/>
<path d="M3625 919 c-4 -6 -5 -13 -2 -16 7 -7 27 6 27 18 0 12 -17 12 -25 -2z"/>
<path d="M3835 920 c-4 -6 -1 -17 5 -25 6 -8 9 -18 6 -23 -11 -18 19 -33 38
-19 16 12 16 14 -3 36 -12 13 -21 28 -21 33 0 11 -18 10 -25 -2z"/>
<path d="M785 910 c-9 -15 3 -47 21 -54 17 -6 27 13 22 41 -4 20 -33 30 -43
13z"/>
<path d="M4015 906 c-31 -14 -61 -43 -53 -52 3 -2 18 2 34 10 16 8 41 18 57
21 29 6 38 35 10 35 -10 -1 -32 -7 -48 -14z"/>
<path d="M1277 903 c-3 -5 -3 -13 1 -18 11 -15 52 -36 52 -27 0 14 -48 54 -53
45z"/>
<path d="M4214 895 c-4 -8 -14 -15 -24 -15 -9 0 -29 -11 -43 -24 l-27 -25 28
3 c15 2 30 4 33 5 13 2 60 71 49 71 -6 0 -13 -7 -16 -15z"/>
<path d="M4126 884 c-4 -9 -4 -19 -2 -21 8 -8 26 8 26 23 0 19 -16 18 -24 -2z"/>
<path d="M885 881 c-8 -15 3 -31 21 -31 9 0 14 7 12 17 -4 20 -24 28 -33 14z"/>
<path d="M1515 880 c-3 -6 1 -13 10 -16 19 -8 30 0 20 15 -8 14 -22 14 -30 1z"/>
<path d="M3700 870 c0 -22 25 -18 34 6 3 9 -1 14 -14 14 -13 0 -20 -7 -20 -20z"/>
<path d="M1010 870 c0 -12 35 -31 44 -23 8 9 -14 33 -30 33 -8 0 -14 -4 -14
-10z"/>
<path d="M1150 871 c0 -13 29 -35 37 -28 7 8 -15 37 -28 37 -5 0 -9 -4 -9 -9z"/>
<path d="M850 821 c0 -21 5 -31 16 -31 11 0 14 8 12 27 -4 39 -28 42 -28 4z"/>
<path d="M3890 835 c0 -8 7 -15 15 -15 8 0 15 7 15 15 0 8 -7 15 -15 15 -8 0
-15 -7 -15 -15z"/>
<path d="M960 823 c1 -20 55 -91 64 -83 5 6 -13 66 -27 88 -12 18 -37 15 -37
-5z"/>
<path d="M4045 814 c-22 -20 -25 -27 -15 -39 27 -32 60 -12 60 35 0 30 -15 31
-45 4z"/>
<path d="M922 780 c-7 -11 -20 -20 -29 -20 -14 0 -14 -2 2 -20 10 -11 23 -19
29 -17 6 2 28 -4 48 -14 21 -11 44 -19 52 -19 25 0 7 30 -23 36 -37 9 -55 25
-40 35 10 6 10 11 0 23 -17 21 -24 20 -39 -4z"/>
<path d="M1112 788 c6 -18 28 -21 28 -4 0 9 -7 16 -16 16 -9 0 -14 -5 -12 -12z"/>
<path d="M3780 784 c0 -8 5 -12 10 -9 6 3 10 10 10 16 0 5 -4 9 -10 9 -5 0
-10 -7 -10 -16z"/>
<path d="M1193 773 c9 -9 19 -14 23 -11 10 10 -6 28 -24 28 -15 0 -15 -1 1
-17z"/>
<path d="M3443 775 c-3 -9 -3 -19 1 -22 7 -7 36 16 36 28 0 15 -30 10 -37 -6z"/>
<path d="M3567 783 c-12 -11 -8 -23 8 -23 8 0 15 7 15 15 0 16 -12 20 -23 8z"/>
<path d="M3960 774 c0 -9 7 -14 17 -12 25 5 28 28 4 28 -12 0 -21 -6 -21 -16z"/>
<path d="M3355 771 c-7 -12 12 -24 25 -16 11 7 4 25 -10 25 -5 0 -11 -4 -15
-9z"/>
<path d="M3866 745 c-29 -27 -27 -58 2 -32 10 8 26 17 37 19 11 2 21 11 23 21
5 26 -30 21 -62 -8z"/>
<path d="M1055 750 c-10 -17 20 -44 40 -36 9 3 15 14 13 23 -4 21 -43 30 -53
13z"/>
<path d="M1272 738 c6 -18 28 -21 28 -4 0 9 -7 16 -16 16 -9 0 -14 -5 -12 -12z"/>
<path d="M4053 738 c-25 -33 -25 -40 0 -22 27 19 34 34 18 34 -5 0 -13 -6 -18
-12z"/>
<path d="M3595 726 c-16 -12 -16 -13 0 -30 21 -21 39 -16 43 11 4 25 -20 36
-43 19z"/>
<path d="M3723 715 c-49 -21 -43 -41 10 -37 34 3 40 2 30 -9 -18 -19 -16 -29
7 -29 10 0 23 -7 28 -16 7 -13 13 -14 50 -1 34 12 42 12 42 1 0 -7 5 -16 10
-19 13 -8 40 13 40 30 0 15 -57 25 -85 15 -28 -10 -45 -2 -45 21 0 10 -4 19
-10 19 -5 0 -10 6 -10 14 0 11 -23 28 -33 26 -1 -1 -17 -7 -34 -15z"/>
<path d="M3966 704 c-12 -12 -14 -20 -7 -27 8 -8 16 -6 28 6 12 12 14 20 6 28
-7 7 -15 5 -27 -7z"/>
<path d="M1130 695 c0 -9 5 -15 11 -13 6 2 11 8 11 13 0 5 -5 11 -11 13 -6 2
-11 -4 -11 -13z"/>
<path d="M1916 701 c-3 -5 1 -14 8 -20 16 -13 32 2 21 19 -8 12 -22 13 -29 1z"/>
<path d="M3056 702 c-3 -6 -1 -14 5 -17 15 -10 25 3 12 16 -7 7 -13 7 -17 1z"/>
<path d="M960 680 c0 -5 5 -10 11 -10 5 0 7 5 4 10 -3 6 -8 10 -11 10 -2 0 -4
-4 -4 -10z"/>
<path d="M1050 681 c0 -11 29 -35 35 -29 10 9 -7 38 -21 38 -8 0 -14 -4 -14
-9z"/>
<path d="M3170 680 c-13 -8 -12 -10 3 -10 9 0 17 5 17 10 0 12 -1 12 -20 0z"/>
<path d="M3325 680 c-3 -5 -1 -10 4 -10 6 0 11 5 11 10 0 6 -2 10 -4 10 -3 0
-8 -4 -11 -10z"/>
<path d="M3210 670 c0 -5 6 -10 14 -10 8 0 18 5 21 10 3 6 -3 10 -14 10 -12 0
-21 -4 -21 -10z"/>
<path d="M3476 655 c-3 -9 0 -15 8 -15 7 0 19 7 26 15 10 12 9 15 -8 15 -11 0
-22 -7 -26 -15z"/>
<path d="M1222 643 c2 -13 16 -20 48 -24 25 -4 46 -5 48 -4 6 5 -69 45 -84 45
-9 0 -14 -7 -12 -17z"/>
<path d="M1010 640 c0 -11 61 -45 75 -42 9 2 28 -5 43 -16 45 -31 62 -34 62
-11 0 12 -10 23 -27 30 -16 6 -43 18 -61 27 -30 14 -92 23 -92 12z"/>
<path d="M3357 644 c-14 -14 -7 -35 11 -32 9 2 17 10 17 17 0 16 -18 25 -28
15z"/>
<path d="M3631 641 c-22 -14 -4 -29 34 -28 27 1 35 5 33 16 -4 18 -46 26 -67
12z"/>
<path d="M1350 627 c0 -8 3 -17 8 -21 4 -4 7 -17 7 -29 0 -12 7 -23 16 -25 13
-2 14 3 5 43 -10 41 -36 64 -36 32z"/>
<path d="M3424 605 c-8 -27 -8 -35 1 -35 19 0 48 38 42 55 -11 26 -32 16 -43
-20z"/>
<path d="M1446 605 c-6 -17 17 -31 34 -20 5 3 10 13 10 21 0 19 -36 18 -44 -1z"/>
<path d="M2240 610 c0 -5 7 -10 15 -10 8 0 15 5 15 10 0 6 -7 10 -15 10 -8 0
-15 -4 -15 -10z"/>
<path d="M2895 600 c-3 -5 3 -10 14 -10 12 0 21 5 21 10 0 6 -6 10 -14 10 -8
0 -18 -4 -21 -10z"/>
<path d="M3701 591 c-17 -11 -10 -46 9 -46 17 0 26 33 13 46 -4 4 -14 4 -22 0z"/>
<path d="M1662 573 c2 -10 14 -19 26 -21 19 -3 23 1 20 15 -2 10 -14 19 -26
21 -19 3 -23 -1 -20 -15z"/>
<path d="M3050 574 c0 -9 5 -14 12 -12 18 6 21 28 4 28 -9 0 -16 -7 -16 -16z"/>
<path d="M3501 576 c-9 -10 -9 -16 -1 -21 13 -8 34 -55 31 -69 -3 -14 40 -45
55 -39 9 3 14 -2 14 -16 0 -26 21 -27 51 -1 l24 19 -31 1 c-43 0 -79 21 -79
44 0 13 8 20 23 21 13 1 28 8 33 16 7 11 0 15 -29 17 -20 2 -46 12 -58 23 -18
17 -23 18 -33 5z"/>
<path d="M3783 575 c-3 -9 -3 -19 1 -22 8 -9 56 14 56 27 0 16 -50 12 -57 -5z"/>
<path d="M1212 569 c2 -7 10 -15 17 -17 8 -3 12 1 9 9 -2 7 -10 15 -17 17 -8
3 -12 -1 -9 -9z"/>
<path d="M3247 573 c-12 -11 -8 -23 8 -23 8 0 15 7 15 15 0 16 -12 20 -23 8z"/>
<path d="M1950 550 c0 -5 9 -10 21 -10 11 0 17 5 14 10 -3 6 -13 10 -21 10 -8
0 -14 -4 -14 -10z"/>
<path d="M2541 555 c0 -15 25 -45 38 -45 6 0 11 5 11 10 0 6 -5 10 -11 10 -7
0 -18 8 -25 18 -7 9 -13 13 -13 7z"/>
<path d="M1280 520 c0 -19 7 -33 19 -40 34 -18 43 -11 22 16 -12 15 -21 33
-21 40 0 8 -4 14 -10 14 -5 0 -10 -13 -10 -30z"/>
<path d="M2191 541 c-9 -6 -10 -11 -2 -15 13 -8 31 1 31 15 0 11 -11 11 -29 0z"/>
<path d="M2790 535 c-10 -13 -9 -15 9 -15 12 0 21 6 21 15 0 8 -4 15 -9 15 -5
0 -14 -7 -21 -15z"/>
<path d="M1510 531 c0 -6 5 -13 10 -16 6 -3 10 1 10 9 0 9 -4 16 -10 16 -5 0
-10 -4 -10 -9z"/>
<path d="M1190 522 c0 -15 24 -32 47 -32 27 0 29 8 6 26 -20 15 -53 19 -53 6z"/>
<path d="M1367 523 c-12 -11 -7 -33 8 -39 20 -8 45 13 38 32 -5 14 -34 19 -46
7z"/>
<path d="M3350 505 c0 -15 6 -25 14 -25 7 0 16 11 18 25 4 19 1 25 -13 25 -14
0 -19 -7 -19 -25z"/>
<path d="M3644 518 c-10 -16 3 -20 58 -20 75 0 78 1 78 15 0 15 -127 20 -136
5z"/>
<path d="M2500 504 c0 -9 7 -14 17 -12 25 5 28 28 4 28 -12 0 -21 -6 -21 -16z"/>
<path d="M2730 506 c0 -9 7 -16 16 -16 9 0 14 5 12 12 -6 18 -28 21 -28 4z"/>
<path d="M2980 504 c0 -17 22 -14 28 4 2 7 -3 12 -12 12 -9 0 -16 -7 -16 -16z"/>
<path d="M3195 499 c-4 -6 -4 -13 -1 -16 8 -8 36 5 36 17 0 13 -27 13 -35 -1z"/>
<path d="M1560 485 c7 -8 16 -15 21 -15 5 0 9 7 9 15 0 9 -9 15 -21 15 -18 0
-19 -2 -9 -15z"/>
<path d="M3445 480 c-3 -5 -3 -14 0 -20 3 -5 -1 -10 -10 -10 -24 0 -87 -72
-74 -85 7 -7 17 -1 33 18 12 15 25 27 29 27 16 0 5 -28 -22 -54 -32 -31 -60
-32 -146 -6 -94 28 -117 23 -75 -15 13 -12 27 -15 45 -11 22 6 28 3 32 -14 5
-18 10 -20 57 -14 28 4 58 8 66 10 8 1 21 3 28 3 6 1 20 19 29 40 14 34 22 40
56 45 24 4 45 2 53 -5 11 -9 18 -9 28 1 26 21 8 36 -45 37 -57 1 -79 14 -61
36 11 13 7 27 -9 27 -4 0 -11 -4 -14 -10z"/>
<path d="M1492 468 c6 -18 28 -21 28 -4 0 9 -7 16 -16 16 -9 0 -14 -5 -12 -12z"/>
<path d="M1694 468 c-7 -11 13 -28 33 -28 16 0 6 27 -12 34 -8 3 -17 0 -21 -6z"/>
<path d="M1820 465 c12 -15 30 -12 30 6 0 5 -10 9 -21 9 -18 0 -19 -2 -9 -15z"/>
<path d="M2990 470 c-12 -8 -12 -10 3 -16 21 -8 35 2 21 16 -5 5 -15 6 -24 0z"/>
<path d="M1280 462 c0 -12 19 -26 26 -19 2 2 -2 10 -11 17 -9 8 -15 8 -15 2z"/>
<path d="M1928 462 c-31 -6 -21 -32 12 -32 19 0 30 5 30 14 0 16 -18 24 -42
18z"/>
<path d="M3083 454 c-3 -8 1 -22 9 -30 13 -14 17 -14 31 1 9 8 14 22 11 30 -8
20 -43 19 -51 -1z"/>
<path d="M3376 455 c-7 -19 5 -19 30 0 19 14 19 14 -2 15 -12 0 -24 -7 -28
-15z"/>
<path d="M1625 450 c-3 -5 1 -10 10 -10 9 0 13 5 10 10 -3 6 -8 10 -10 10 -2
0 -7 -4 -10 -10z"/>
<path d="M3243 444 c-3 -8 -1 -20 5 -26 16 -16 42 -2 42 22 0 24 -38 28 -47 4z"/>
<path d="M1436 441 c-8 -12 13 -28 47 -36 23 -6 27 -4 27 13 0 25 -61 45 -74
23z"/>
<path d="M2045 440 c3 -5 10 -10 16 -10 5 0 9 5 9 10 0 6 -7 10 -16 10 -8 0
-12 -4 -9 -10z"/>
<path d="M2295 440 c-3 -6 1 -13 10 -16 19 -8 30 0 20 15 -8 14 -22 14 -30 1z"/>
<path d="M2580 434 c0 -17 22 -14 28 4 2 7 -3 12 -12 12 -9 0 -16 -7 -16 -16z"/>
<path d="M2440 425 c0 -9 6 -12 15 -9 8 4 15 10 15 15 0 5 -7 9 -15 9 -8 0
-15 -7 -15 -15z"/>
<path d="M2812 431 c-11 -7 -11 -9 1 -14 16 -6 27 0 27 15 0 10 -11 10 -28 -1z"/>
<path d="M1377 423 c-12 -11 -8 -22 14 -33 26 -15 34 -7 19 19 -11 22 -22 26
-33 14z"/>
<path d="M2191 419 c-17 -7 -21 -13 -14 -20 16 -16 67 -7 71 14 4 19 -18 22
-57 6z"/>
<path d="M3335 419 c-4 -6 -5 -13 -2 -16 7 -7 27 6 27 18 0 12 -17 12 -25 -2z"/>
<path d="M2720 410 c0 -5 5 -10 10 -10 6 0 10 5 10 10 0 6 -4 10 -10 10 -5 0
-10 -4 -10 -10z"/>
<path d="M2088 398 c9 -9 15 -9 24 0 9 9 7 12 -12 12 -19 0 -21 -3 -12 -12z"/>
<path d="M1590 390 c-20 -12 -13 -16 43 -24 52 -8 66 7 21 24 -31 12 -45 12
-64 0z"/>
<path d="M1784 391 c-11 -11 -2 -20 26 -26 32 -7 70 1 70 15 0 8 -88 19 -96
11z"/>
<path d="M1707 383 c-9 -9 12 -33 29 -33 19 0 18 26 -2 34 -19 7 -19 7 -27 -1z"/>
<path d="M2885 380 c-7 -12 21 -20 66 -20 25 0 39 5 39 13 0 15 -96 21 -105 7z"/>
<path d="M1950 370 c0 -5 9 -10 20 -10 11 0 20 5 20 10 0 6 -9 10 -20 10 -11
0 -20 -4 -20 -10z"/>
<path d="M2110 376 c0 -2 7 -9 15 -16 12 -10 15 -10 15 4 0 9 -7 16 -15 16 -8
0 -15 -2 -15 -4z"/>
<path d="M2752 368 c6 -18 28 -21 28 -4 0 9 -7 16 -16 16 -9 0 -14 -5 -12 -12z"/>
<path d="M1510 362 c0 -6 7 -13 16 -16 8 -3 13 -10 10 -15 -6 -8 15 -21 35
-21 17 0 9 18 -11 23 -11 3 -19 11 -18 18 2 7 -5 15 -14 17 -10 2 -18 -1 -18
-6z"/>
<path d="M2384 359 c-3 -6 -1 -16 4 -21 13 -13 45 8 36 23 -7 12 -31 11 -40
-2z"/>
<path d="M2010 342 c0 -10 -5 -23 -11 -29 -8 -8 -7 -13 1 -18 7 -4 16 -2 20 5
4 7 17 10 29 7 24 -6 27 9 7 36 -17 22 -46 22 -46 -1z"/>
<path d="M2665 349 c-10 -15 1 -23 20 -15 9 3 13 10 10 16 -8 13 -22 13 -30
-1z"/>
<path d="M3017 354 c-9 -10 2 -24 19 -24 8 0 14 7 14 15 0 15 -21 21 -33 9z"/>
<path d="M3072 328 c-17 -11 -32 -23 -32 -27 0 -4 22 -7 50 -7 53 1 62 12 32
39 -16 15 -20 14 -50 -5z"/>
<path d="M1612 332 c-8 -6 2 -18 30 -40 49 -38 78 -44 57 -12 -20 29 -72 60
-87 52z"/>
<path d="M1700 322 c0 -18 26 -32 57 -32 18 0 33 -5 33 -11 0 -8 18 -9 58 -4
64 8 79 16 59 34 -11 8 -31 9 -73 2 -46 -7 -63 -6 -79 5 -21 15 -55 19 -55 6z"/>
<path d="M2290 310 c0 -5 9 -10 20 -10 11 0 20 5 20 10 0 6 -9 10 -20 10 -11
0 -20 -4 -20 -10z"/>
<path d="M2485 310 c-4 -7 -3 -16 3 -22 14 -14 45 -2 40 15 -6 16 -34 21 -43
7z"/>
<path d="M2580 300 c0 -5 9 -10 21 -10 11 0 17 5 14 10 -3 6 -13 10 -21 10 -8
0 -14 -4 -14 -10z"/>
<path d="M2810 300 c0 -5 7 -10 15 -10 8 0 15 5 15 10 0 6 -7 10 -15 10 -8 0
-15 -4 -15 -10z"/>
<path d="M2906 297 c-21 -16 -11 -47 15 -47 13 0 19 7 19 24 0 31 -12 39 -34
23z"/>
<path d="M2224 276 c7 -29 0 -35 -69 -57 -37 -12 -51 -22 -53 -38 -4 -28 28
-29 53 -1 24 27 57 25 105 -5 22 -14 45 -25 51 -25 6 0 24 -8 40 -17 25 -15
34 -15 64 -5 25 10 40 10 54 3 25 -14 58 -14 66 -1 3 5 -9 13 -27 18 -21 5
-38 18 -46 35 -13 26 -31 34 -45 20 -4 -3 0 -15 9 -24 16 -17 16 -19 0 -25
-26 -10 -89 6 -104 27 -7 10 -24 19 -36 19 -27 0 -40 22 -23 39 14 14 -7 61
-29 61 -12 0 -15 -6 -10 -24z"/>
<path d="M1946 277 c-28 -21 -11 -39 29 -31 58 11 101 -19 74 -52 -13 -15 -4
-34 17 -34 8 0 14 10 14 24 0 13 2 30 5 38 3 8 -12 21 -42 35 -74 34 -77 34
-97 20z"/>
<path d="M2126 281 c-4 -5 8 -12 25 -16 33 -7 45 -3 34 14 -8 13 -52 14 -59 2z"/>
<path d="M3147 268 c-15 -24 -97 -58 -139 -58 -13 0 -29 5 -35 11 -15 15 -43
4 -43 -15 0 -22 35 -38 67 -30 61 14 157 45 169 55 7 6 21 10 31 9 38 -4 42 1
19 25 -29 31 -49 32 -69 3z"/>
<path d="M2287 264 c-11 -11 3 -24 24 -24 12 0 19 5 17 13 -5 14 -31 21 -41
11z"/>
<path d="M2760 245 c0 -17 -7 -28 -21 -33 -26 -10 -38 -82 -14 -82 36 0 63 32
34 42 -16 5 1 37 24 44 12 3 28 11 35 17 17 14 -4 37 -34 37 -19 0 -24 -5 -24
-25z"/>
<path d="M3023 263 c-7 -2 -13 -9 -13 -15 0 -12 41 -6 41 7 1 12 -11 15 -28 8z"/>
<path d="M1770 246 c0 -19 89 -46 112 -34 10 5 35 4 58 -1 22 -5 40 -6 40 -2
0 16 -81 34 -129 28 -38 -4 -51 -2 -55 9 -7 18 -26 18 -26 0z"/>
<path d="M2360 253 c0 -2 16 -9 36 -18 24 -10 47 -12 71 -7 64 13 47 27 -32
27 -41 0 -75 -1 -75 -2z"/>
<path d="M2656 244 c-5 -13 -15 -15 -46 -10 -42 7 -55 -9 -26 -33 8 -7 17 -27
20 -46 10 -50 48 -45 61 8 6 21 4 27 -9 27 -21 0 -20 19 2 27 30 11 43 43 18
43 -8 0 -17 -7 -20 -16z"/>
<path d="M2845 218 c-59 -21 -77 -58 -29 -58 33 0 64 17 64 35 0 8 7 15 15 15
8 0 15 5 15 10 0 12 -26 12 -65 -2z"/>
<path d="M2535 200 c-8 -13 4 -32 16 -25 12 8 12 35 0 35 -6 0 -13 -4 -16 -10z"/>
<path d="M2890 180 c-9 -17 -8 -20 9 -20 19 0 35 23 24 34 -11 11 -22 6 -33
-14z"/>
<path d="M1965 180 c28 -12 57 -12 50 0 -3 6 -21 10 -38 9 -27 0 -29 -2 -12
-9z"/>
<path d="M2180 150 c-33 -7 -32 -7 17 -9 28 0 55 4 58 9 7 11 -22 11 -75 0z"/>
</g>
</svg>
